<?xml version="1.0" encoding="UTF-8" standalone="no"?>
<svg
   xmlns:dc="http://purl.org/dc/elements/1.1/"
   xmlns:cc="http://creativecommons.org/ns#"
   xmlns:rdf="http://www.w3.org/1999/02/22-rdf-syntax-ns#"
   xmlns:svg="http://www.w3.org/2000/svg"
   xmlns="http://www.w3.org/2000/svg"
   xmlns:sodipodi="http://sodipodi.sourceforge.net/DTD/sodipodi-0.dtd"
   xmlns:inkscape="http://www.inkscape.org/namespaces/inkscape"
   sodipodi:docname="loading_container.svg"
   width="316.10492mm"
   height="316.10492mm"
   viewBox="0 0 316.10491 316.10491"
   version="1.1"
   id="svg8"
   inkscape:version="1.0 (4035a4fb49, 2020-05-01)">
  <defs
     id="defs2" />
  <sodipodi:namedview
     id="base"
     pagecolor="#383838"
     bordercolor="#666666"
     borderopacity="1.0"
     inkscape:pageopacity="0"
     inkscape:pageshadow="2"
     inkscape:zoom="0.35355339"
     inkscape:cx="1349.9253"
     inkscape:cy="903.45668"
     inkscape:document-units="mm"
     inkscape:current-layer="layer2"
     inkscape:document-rotation="0"
     showgrid="false"
     fit-margin-top="0"
     fit-margin-left="0"
     fit-margin-right="0"
     fit-margin-bottom="0"
     inkscape:showpageshadow="false"
     showborder="false" />
  <metadata
     id="metadata5">
    <rdf:RDF>
      <cc:Work
         rdf:about="">
        <dc:format>image/svg+xml</dc:format>
        <dc:type
           rdf:resource="http://purl.org/dc/dcmitype/StillImage" />
        <dc:title />
      </cc:Work>
    </rdf:RDF>
  </metadata>
  <g
     transform="translate(-1.9580078e-7,12.342637)"
     inkscape:groupmode="layer"
     id="layer2"
     inkscape:label="Layer 1"
     style="opacity:0.997">
    <g
       style="font-style:normal;font-variant:normal;font-weight:bold;font-stretch:normal;font-size:5.33096px;line-height:1.25;font-family:Montserrat;-inkscape-font-specification:'Montserrat, Bold';font-variant-ligatures:normal;font-variant-caps:normal;font-variant-numeric:normal;font-variant-east-asian:normal;stroke-width:0.133275"
       id="text864"
       aria-label="LOADING ● LOADING ● LOADING ● LOADING ● LOADING ● LOADING"
       inkscape:export-xdpi="1305.0326"
       inkscape:export-ydpi="1305.0326">
      <path
         id="path946"
         style="font-style:normal;font-variant:normal;font-weight:bold;font-stretch:normal;font-size:5.33096px;font-family:Montserrat;-inkscape-font-specification:'Montserrat, Bold';font-variant-ligatures:normal;font-variant-caps:normal;font-variant-numeric:normal;font-variant-east-asian:normal;stroke-width:0.133275"
         d="m 177.30406,90.668363 1.85916,2.005635 0.51607,-0.478379 -1.27205,-1.372277 2.22066,-2.058481 -0.5871,-0.633359 z" />
      <path
         id="path948"
         style="font-style:normal;font-variant:normal;font-weight:bold;font-stretch:normal;font-size:5.33096px;font-family:Montserrat;-inkscape-font-specification:'Montserrat, Bold';font-variant-ligatures:normal;font-variant-caps:normal;font-variant-numeric:normal;font-variant-east-asian:normal;stroke-width:0.133275"
         d="m 180.46203,94.486118 c 0.69568,0.9442 1.86777,1.159951 2.76476,0.499054 0.89699,-0.660897 1.0382,-1.844278 0.34252,-2.788478 -0.69884,-0.948492 -1.87206,-1.15679 -2.76476,-0.499055 -0.89269,0.657735 -1.04136,1.839987 -0.34252,2.788479 z m 0.59227,-0.436382 c -0.39527,-0.536478 -0.30196,-1.227668 0.26885,-1.648238 0.57081,-0.420571 1.25862,-0.304899 1.65389,0.231578 0.39527,0.536477 0.30196,1.227667 -0.26885,1.648238 -0.57081,0.420571 -1.25861,0.304899 -1.65389,-0.231578 z" />
      <path
         id="path950"
         style="font-style:normal;font-variant:normal;font-weight:bold;font-stretch:normal;font-size:5.33096px;font-family:Montserrat;-inkscape-font-specification:'Montserrat, Bold';font-variant-ligatures:normal;font-variant-caps:normal;font-variant-numeric:normal;font-variant-east-asian:normal;stroke-width:0.133275"
         d="m 183.38014,99.050555 0.44047,0.792021 2.45027,-3.27196 -0.41456,-0.745431 -4.06966,0.360118 0.43011,0.773385 0.85949,-0.0998 0.84208,1.514157 z m 0.4039,-2.268094 1.5362,-0.177248 -0.961,1.211534 z" />
      <path
         id="path952"
         style="font-style:normal;font-variant:normal;font-weight:bold;font-stretch:normal;font-size:5.33096px;font-family:Montserrat;-inkscape-font-specification:'Montserrat, Bold';font-variant-ligatures:normal;font-variant-caps:normal;font-variant-numeric:normal;font-variant-east-asian:normal;stroke-width:0.133275"
         d="m 183.96963,100.20585 0.62963,1.57399 c 0.4534,1.13346 1.4473,1.63732 2.49663,1.21758 1.04932,-0.41975 1.42152,-1.47008 0.96811,-2.60355 l -0.62962,-1.573982 z m 0.97906,0.53851 2.14814,-0.859297 0.29303,0.732547 c 0.27521,0.688 0.0446,1.30275 -0.61868,1.56807 -0.66325,0.26531 -1.25425,-0.0208 -1.52946,-0.70877 z" />
      <path
         id="path954"
         style="font-style:normal;font-variant:normal;font-weight:bold;font-stretch:normal;font-size:5.33096px;font-family:Montserrat;-inkscape-font-specification:'Montserrat, Bold';font-variant-ligatures:normal;font-variant-caps:normal;font-variant-numeric:normal;font-variant-east-asian:normal;stroke-width:0.133275"
         d="m 185.5101,104.33071 0.24586,0.82788 3.57726,-1.06236 -0.24586,-0.82788 z" />
      <path
         id="path956"
         style="font-style:normal;font-variant:normal;font-weight:bold;font-stretch:normal;font-size:5.33096px;font-family:Montserrat;-inkscape-font-specification:'Montserrat, Bold';font-variant-ligatures:normal;font-variant-caps:normal;font-variant-numeric:normal;font-variant-east-asian:normal;stroke-width:0.133275"
         d="m 190.19108,107.78785 -2.22111,0.44709 1.85502,-2.26579 -0.14097,-0.7003 -3.65829,0.73639 0.16832,0.83618 2.2211,-0.44709 -1.85396,2.27101 0.13991,0.69508 3.6583,-0.73639 z" />
      <path
         id="path958"
         style="font-style:normal;font-variant:normal;font-weight:bold;font-stretch:normal;font-size:5.33096px;font-family:Montserrat;-inkscape-font-specification:'Montserrat, Bold';font-variant-ligatures:normal;font-variant-caps:normal;font-variant-numeric:normal;font-variant-east-asian:normal;stroke-width:0.133275"
         d="m 187.83175,112.69816 c -0.1331,-0.20931 -0.19178,-0.42413 -0.20911,-0.65805 -0.0528,-0.7124 0.40504,-1.24345 1.10149,-1.29504 0.70708,-0.0524 1.22749,0.40622 1.28105,1.12925 0.028,0.37746 -0.0817,0.70098 -0.34872,0.99338 l 0.55132,0.5151 c 0.39322,-0.39263 0.57634,-0.95144 0.52791,-1.60535 -0.0878,-1.18556 -0.95439,-1.98735 -2.07615,-1.90426 -1.12176,0.0831 -1.86074,1.0038 -1.7741,2.17341 0.0394,0.53164 0.24593,1.08297 0.5846,1.46949 l 1.50985,-0.11183 -0.0583,-0.78683 z" />
      <path
         id="path960"
         style="font-style:normal;font-variant:normal;font-weight:bold;font-stretch:normal;font-size:5.33096px;font-family:Montserrat;-inkscape-font-specification:'Montserrat, Bold';font-variant-ligatures:normal;font-variant-caps:normal;font-variant-numeric:normal;font-variant-east-asian:normal;stroke-width:0.133275"
         d="m 188.50754,115.99819 q 0.47487,0.0376 0.78311,0.39882 0.30824,0.36124 0.27065,0.83611 -0.0374,0.47227 -0.39862,0.78051 -0.36124,0.30825 -0.8361,0.27066 -0.47227,-0.0374 -0.78052,-0.39863 -0.30824,-0.36123 -0.27086,-0.8335 0.0376,-0.47487 0.39883,-0.78311 0.36124,-0.30825 0.83351,-0.27086 z" />
      <path
         id="path962"
         style="font-style:normal;font-variant:normal;font-weight:bold;font-stretch:normal;font-size:5.33096px;font-family:Montserrat;-inkscape-font-specification:'Montserrat, Bold';font-variant-ligatures:normal;font-variant-caps:normal;font-variant-numeric:normal;font-variant-east-asian:normal;stroke-width:0.133275"
         d="m 186.41496,120.86362 -0.61665,2.66436 0.68557,0.15867 0.42191,-1.82298 2.95001,0.68275 0.19473,-0.84137 z" />
      <path
         id="path964"
         style="font-style:normal;font-variant:normal;font-weight:bold;font-stretch:normal;font-size:5.33096px;font-family:Montserrat;-inkscape-font-specification:'Montserrat, Bold';font-variant-ligatures:normal;font-variant-caps:normal;font-variant-numeric:normal;font-variant-east-asian:normal;stroke-width:0.133275"
         d="m 185.02556,125.61931 c -0.3919,1.1054 0.0865,2.19694 1.13663,2.56924 1.05013,0.3723 2.10924,-0.17416 2.50113,-1.27956 0.39368,-1.11042 -0.0915,-2.19872 -1.13663,-2.56924 -1.04511,-0.37051 -2.10746,0.16914 -2.50113,1.27956 z m 0.69338,0.24583 c 0.22267,-0.62807 0.84735,-0.93828 1.51561,-0.70136 0.66826,0.23691 0.95805,0.87132 0.73539,1.49939 -0.22267,0.62807 -0.84735,0.93827 -1.51561,0.70136 -0.66826,-0.23692 -0.95805,-0.87133 -0.73539,-1.49939 z" />
      <path
         id="path966"
         style="font-style:normal;font-variant:normal;font-weight:bold;font-stretch:normal;font-size:5.33096px;font-family:Montserrat;-inkscape-font-specification:'Montserrat, Bold';font-variant-ligatures:normal;font-variant-caps:normal;font-variant-numeric:normal;font-variant-east-asian:normal;stroke-width:0.133275"
         d="m 182.88102,130.59446 -0.40905,0.8087 4.08306,0.19537 0.38499,-0.76113 -2.57921,-3.16852 -0.39942,0.78967 0.56437,0.65586 -0.782,1.54604 z m 2.10474,-0.93672 1.0078,1.17288 -1.54197,-0.11682 z" />
      <path
         id="path968"
         style="font-style:normal;font-variant:normal;font-weight:bold;font-stretch:normal;font-size:5.33096px;font-family:Montserrat;-inkscape-font-specification:'Montserrat, Bold';font-variant-ligatures:normal;font-variant-caps:normal;font-variant-numeric:normal;font-variant-east-asian:normal;stroke-width:0.133275"
         d="m 182.25455,131.73013 -0.95052,1.40369 c -0.6845,1.01084 -0.54463,2.11635 0.39117,2.75003 0.93579,0.63369 2.01423,0.35316 2.69872,-0.65768 l 0.95053,-1.4037 z m 0.10285,1.11263 1.91574,1.29726 -0.44238,0.65329 c -0.41548,0.61357 -1.05386,0.76716 -1.64536,0.36663 -0.59149,-0.40054 -0.68586,-1.05032 -0.27038,-1.66388 z" />
      <path
         id="path970"
         style="font-style:normal;font-variant:normal;font-weight:bold;font-stretch:normal;font-size:5.33096px;font-family:Montserrat;-inkscape-font-specification:'Montserrat, Bold';font-variant-ligatures:normal;font-variant-caps:normal;font-variant-numeric:normal;font-variant-east-asian:normal;stroke-width:0.133275"
         d="m 179.70239,135.31803 -0.54754,0.66785 2.88578,2.36594 0.54755,-0.66786 z" />
      <path
         id="path972"
         style="font-style:normal;font-variant:normal;font-weight:bold;font-stretch:normal;font-size:5.33096px;font-family:Montserrat;-inkscape-font-specification:'Montserrat, Bold';font-variant-ligatures:normal;font-variant-caps:normal;font-variant-numeric:normal;font-variant-east-asian:normal;stroke-width:0.133275"
         d="m 179.46986,141.13115 -1.61756,-1.58641 2.91655,0.26191 0.50019,-0.51001 -2.66423,-2.61291 -0.59723,0.60896 1.61756,1.58641 -2.92029,-0.2581 -0.49645,0.5062 2.66423,2.61291 z" />
      <path
         id="path974"
         style="font-style:normal;font-variant:normal;font-weight:bold;font-stretch:normal;font-size:5.33096px;font-family:Montserrat;-inkscape-font-specification:'Montserrat, Bold';font-variant-ligatures:normal;font-variant-caps:normal;font-variant-numeric:normal;font-variant-east-asian:normal;stroke-width:0.133275"
         d="m 174.08482,141.93984 c 0.0982,-0.22777 0.24287,-0.39709 0.42656,-0.54296 0.55942,-0.44423 1.25598,-0.3643 1.69028,0.1826 0.44092,0.55524 0.35435,1.24346 -0.21342,1.69432 -0.2964,0.23538 -0.62559,0.32661 -1.01753,0.27025 l -0.11591,0.74556 c 0.54578,0.10437 1.11085,-0.0584 1.62434,-0.46621 0.93097,-0.73929 1.10668,-1.90674 0.40718,-2.78762 -0.69951,-0.88087 -1.87642,-0.97419 -2.79486,-0.24485 -0.41748,0.33152 -0.75723,0.81235 -0.88641,1.30976 l 0.94152,1.18563 0.61787,-0.49065 z" />
      <path
         id="path976"
         style="font-style:normal;font-variant:normal;font-weight:bold;font-stretch:normal;font-size:5.33096px;font-family:Montserrat;-inkscape-font-specification:'Montserrat, Bold';font-variant-ligatures:normal;font-variant-caps:normal;font-variant-numeric:normal;font-variant-east-asian:normal;stroke-width:0.133275"
         d="m 171.73324,144.35424 q 0.23531,0.41417 0.10922,0.872 -0.12609,0.45783 -0.54027,0.69314 -0.41191,0.23402 -0.86974,0.10793 -0.45783,-0.12609 -0.69314,-0.54026 -0.23402,-0.41192 -0.10793,-0.86975 0.12609,-0.45783 0.538,-0.69185 0.41418,-0.2353 0.87201,-0.10921 0.45783,0.12609 0.69185,0.538 z" />
      <path
         id="path978"
         style="font-style:normal;font-variant:normal;font-weight:bold;font-stretch:normal;font-size:5.33096px;font-family:Montserrat;-inkscape-font-specification:'Montserrat, Bold';font-variant-ligatures:normal;font-variant-caps:normal;font-variant-numeric:normal;font-variant-east-asian:normal;stroke-width:0.133275"
         d="m 166.53052,145.3494 -2.55293,0.98059 0.25231,0.6569 1.74675,-0.67093 1.08572,2.82664 0.80619,-0.30966 z" />
      <path
         id="path980"
         style="font-style:normal;font-variant:normal;font-weight:bold;font-stretch:normal;font-size:5.33096px;font-family:Montserrat;-inkscape-font-specification:'Montserrat, Bold';font-variant-ligatures:normal;font-variant-caps:normal;font-variant-numeric:normal;font-variant-east-asian:normal;stroke-width:0.133275"
         d="m 161.81176,146.85993 c -1.13534,0.29407 -1.77201,1.30154 -1.49264,2.38011 0.27937,1.07858 1.32507,1.65028 2.46041,1.35621 1.14051,-0.29541 1.77068,-1.3067 1.49265,-2.38012 -0.27803,-1.07341 -1.31991,-1.65161 -2.46042,-1.3562 z m 0.18447,0.71217 c 0.64508,-0.16709 1.25182,0.17688 1.4296,0.86325 0.17778,0.68637 -0.18568,1.28164 -0.83076,1.44873 -0.64508,0.16708 -1.25183,-0.17689 -1.42961,-0.86325 -0.17778,-0.68637 0.18568,-1.28164 0.83077,-1.44873 z" />
      <path
         id="path982"
         style="font-style:normal;font-variant:normal;font-weight:bold;font-stretch:normal;font-size:5.33096px;font-family:Montserrat;-inkscape-font-specification:'Montserrat, Bold';font-variant-ligatures:normal;font-variant-caps:normal;font-variant-numeric:normal;font-variant-east-asian:normal;stroke-width:0.133275"
         d="m 156.48929,147.8711 -0.89897,0.11476 2.1277,3.49034 0.84609,-0.10801 1.17733,-3.91224 -0.87782,0.11205 -0.2266,0.83506 -1.71861,0.2194 z m 1.95579,1.2175 -0.40606,1.49212 -0.76789,-1.34226 z" />
      <path
         id="path984"
         style="font-style:normal;font-variant:normal;font-weight:bold;font-stretch:normal;font-size:5.33096px;font-family:Montserrat;-inkscape-font-specification:'Montserrat, Bold';font-variant-ligatures:normal;font-variant-caps:normal;font-variant-numeric:normal;font-variant-east-asian:normal;stroke-width:0.133275"
         d="m 155.19771,147.98988 -1.69524,0.003 c -1.22079,0.002 -2.05662,0.73884 -2.05488,1.869 0.002,1.13016 0.83984,1.86455 2.06063,1.86267 l 1.69524,-0.003 z m -0.86252,0.71034 0.004,2.31364 -0.78898,0.001 c -0.741,0.001 -1.2268,-0.44058 -1.2279,-1.15493 -0.001,-0.71434 0.48334,-1.15756 1.22434,-1.1587 z" />
      <path
         id="path986"
         style="font-style:normal;font-variant:normal;font-weight:bold;font-stretch:normal;font-size:5.33096px;font-family:Montserrat;-inkscape-font-specification:'Montserrat, Bold';font-variant-ligatures:normal;font-variant-caps:normal;font-variant-numeric:normal;font-variant-east-asian:normal;stroke-width:0.133275"
         d="m 150.79567,147.89614 -0.86017,-0.0771 -0.33314,3.71677 0.86017,0.0771 z" />
      <path
         id="path988"
         style="font-style:normal;font-variant:normal;font-weight:bold;font-stretch:normal;font-size:5.33096px;font-family:Montserrat;-inkscape-font-specification:'Montserrat, Bold';font-variant-ligatures:normal;font-variant-caps:normal;font-variant-numeric:normal;font-variant-east-asian:normal;stroke-width:0.133275"
         d="m 145.85562,150.97148 0.40373,-2.22939 1.42175,2.55998 0.70292,0.12729 0.66497,-3.67195 -0.83931,-0.15199 -0.40372,2.2294 -1.427,-2.56093 -0.69767,-0.12635 -0.66497,3.67195 z" />
      <path
         id="path990"
         style="font-style:normal;font-variant:normal;font-weight:bold;font-stretch:normal;font-size:5.33096px;font-family:Montserrat;-inkscape-font-specification:'Montserrat, Bold';font-variant-ligatures:normal;font-variant-caps:normal;font-variant-numeric:normal;font-variant-east-asian:normal;stroke-width:0.133275"
         d="m 142.16171,146.96605 c 0.24367,-0.0464 0.46497,-0.0215 0.68875,0.0488 0.6815,0.21412 1.00588,0.83571 0.79655,1.50195 -0.21253,0.67642 -0.83092,0.99062 -1.5226,0.77331 -0.36109,-0.11346 -0.62121,-0.33488 -0.7943,-0.69101 l -0.68232,0.32206 c 0.2196,0.51044 0.67124,0.88703 1.2968,1.08358 1.13414,0.35633 2.19933,-0.15276 2.53649,-1.22587 0.33717,-1.07312 -0.24545,-2.09994 -1.36433,-2.45149 -0.50859,-0.15979 -1.09722,-0.17151 -1.58151,4.3e-4 l -0.45381,1.44438 0.7527,0.23649 z" />
      <path
         id="path992"
         style="font-style:normal;font-variant:normal;font-weight:bold;font-stretch:normal;font-size:5.33096px;font-family:Montserrat;-inkscape-font-specification:'Montserrat, Bold';font-variant-ligatures:normal;font-variant-caps:normal;font-variant-numeric:normal;font-variant-east-asian:normal;stroke-width:0.133275"
         d="m 138.84384,146.37172 q -0.21112,0.427 -0.66095,0.57919 -0.44983,0.15218 -0.87684,-0.0589 -0.42468,-0.20997 -0.57686,-0.6598 -0.15218,-0.44983 0.0589,-0.87684 0.20997,-0.42468 0.6598,-0.57686 0.44983,-0.15218 0.87451,0.0578 0.42701,0.21112 0.57919,0.66095 0.15218,0.44983 -0.0578,0.87451 z" />
      <path
         id="path994"
         style="font-style:normal;font-variant:normal;font-weight:bold;font-stretch:normal;font-size:5.33096px;font-family:Montserrat;-inkscape-font-specification:'Montserrat, Bold';font-variant-ligatures:normal;font-variant-caps:normal;font-variant-numeric:normal;font-variant-east-asian:normal;stroke-width:0.133275"
         d="m 135.10377,142.62078 -2.24311,-1.56445 -0.40255,0.57718 1.53476,1.07041 -1.73218,2.4836 0.70835,0.49403 z" />
      <path
         id="path996"
         style="font-style:normal;font-variant:normal;font-weight:bold;font-stretch:normal;font-size:5.33096px;font-family:Montserrat;-inkscape-font-specification:'Montserrat, Bold';font-variant-ligatures:normal;font-variant-caps:normal;font-variant-numeric:normal;font-variant-east-asian:normal;stroke-width:0.133275"
         d="m 131.20724,139.56057 c -0.88051,-0.77472 -2.07167,-0.73637 -2.80765,0.10012 -0.73598,0.83648 -0.62239,2.02283 0.25812,2.79755 0.88451,0.77824 2.07519,0.73236 2.80765,-0.10012 0.73246,-0.83248 0.62639,-2.01931 -0.25812,-2.79755 z m -0.48596,0.55232 c 0.50029,0.44018 0.55605,1.13541 0.0877,1.66771 -0.46835,0.53231 -1.16502,0.5655 -1.66531,0.12532 -0.50029,-0.44018 -0.55606,-1.13541 -0.0877,-1.66771 0.46835,-0.53231 1.16502,-0.56551 1.66531,-0.12532 z" />
      <path
         id="path998"
         style="font-style:normal;font-variant:normal;font-weight:bold;font-stretch:normal;font-size:5.33096px;font-family:Montserrat;-inkscape-font-specification:'Montserrat, Bold';font-variant-ligatures:normal;font-variant-caps:normal;font-variant-numeric:normal;font-variant-east-asian:normal;stroke-width:0.133275"
         d="m 127.3796,135.72585 -0.60042,-0.67884 -1.68973,3.72215 0.5651,0.6389 3.89713,-1.22643 -0.58628,-0.66286 -0.81795,0.2822 -1.14785,-1.29777 z m 0.093,2.30189 -1.4622,0.5033 0.67813,-1.38977 z" />
      <path
         id="path1000"
         style="font-style:normal;font-variant:normal;font-weight:bold;font-stretch:normal;font-size:5.33096px;font-family:Montserrat;-inkscape-font-specification:'Montserrat, Bold';font-variant-ligatures:normal;font-variant-caps:normal;font-variant-numeric:normal;font-variant-east-asian:normal;stroke-width:0.133275"
         d="m 126.5545,134.72516 -0.95465,-1.40089 c -0.68746,-1.00883 -1.76672,-1.28618 -2.70065,-0.64975 -0.93393,0.63643 -1.07055,1.74234 -0.38308,2.75117 l 0.95464,1.40089 z m -1.07224,-0.31439 -1.91192,1.30288 -0.4443,-0.65199 c -0.41728,-0.61234 -0.32482,-1.2624 0.2655,-1.66467 0.59031,-0.40227 1.22914,-0.25055 1.64642,0.36179 z" />
      <path
         id="path1002"
         style="font-style:normal;font-variant:normal;font-weight:bold;font-stretch:normal;font-size:5.33096px;font-family:Montserrat;-inkscape-font-specification:'Montserrat, Bold';font-variant-ligatures:normal;font-variant-caps:normal;font-variant-numeric:normal;font-variant-east-asian:normal;stroke-width:0.133275"
         d="m 124.15975,131.03047 -0.41867,-0.75535 -3.26384,1.80906 0.41866,0.75534 z" />
      <path
         id="path1004"
         style="font-style:normal;font-variant:normal;font-weight:bold;font-stretch:normal;font-size:5.33096px;font-family:Montserrat;-inkscape-font-specification:'Montserrat, Bold';font-variant-ligatures:normal;font-variant-caps:normal;font-variant-numeric:normal;font-variant-east-asian:normal;stroke-width:0.133275"
         d="m 118.84355,128.66143 2.073,-0.91426 -1.32438,2.61168 0.28826,0.65361 3.41435,-1.50585 -0.34419,-0.78042 -2.073,0.91426 1.32223,-2.61656 -0.28612,-0.64873 -3.41435,1.50585 z" />
      <path
         id="path1006"
         style="font-style:normal;font-variant:normal;font-weight:bold;font-stretch:normal;font-size:5.33096px;font-family:Montserrat;-inkscape-font-specification:'Montserrat, Bold';font-variant-ligatures:normal;font-variant-caps:normal;font-variant-numeric:normal;font-variant-east-asian:normal;stroke-width:0.133275"
         d="m 120.0946,123.35673 c 0.17482,0.17598 0.27811,0.37327 0.34509,0.59806 0.204,0.6846 -0.12955,1.30132 -0.79883,1.50075 -0.67949,0.20248 -1.28598,-0.13412 -1.49303,-0.82894 -0.10809,-0.36273 -0.0702,-0.70222 0.12806,-1.04499 l -0.64879,-0.38518 c -0.30009,0.46768 -0.35938,1.05273 -0.17213,1.68113 0.3395,1.1393 1.35757,1.73707 2.43557,1.41585 1.07799,-0.32122 1.60281,-1.37876 1.26789,-2.50273 -0.15224,-0.51089 -0.47199,-1.00525 -0.88553,-1.31034 l -1.45095,0.43236 0.22531,0.75612 z" />
      <path
         id="path1008"
         style="font-style:normal;font-variant:normal;font-weight:bold;font-stretch:normal;font-size:5.33096px;font-family:Montserrat;-inkscape-font-specification:'Montserrat, Bold';font-variant-ligatures:normal;font-variant-caps:normal;font-variant-numeric:normal;font-variant-east-asian:normal;stroke-width:0.133275"
         d="m 118.72963,120.27636 q -0.47195,0.0646 -0.85015,-0.22261 -0.37821,-0.28718 -0.44277,-0.75913 -0.0642,-0.46938 0.22296,-0.84758 0.28717,-0.3782 0.75913,-0.44277 0.46937,-0.0642 0.84757,0.22296 0.37821,0.28718 0.44242,0.75655 0.0646,0.47196 -0.22261,0.85016 -0.28717,0.3782 -0.75655,0.44242 z" />
      <path
         id="path1010"
         style="font-style:normal;font-variant:normal;font-weight:bold;font-stretch:normal;font-size:5.33096px;font-family:Montserrat;-inkscape-font-specification:'Montserrat, Bold';font-variant-ligatures:normal;font-variant-caps:normal;font-variant-numeric:normal;font-variant-east-asian:normal;stroke-width:0.133275"
         d="m 119.73624,115.07659 0.0331,-2.73458 -0.70363,-0.009 -0.0226,1.87103 -3.02776,-0.0366 -0.0104,0.86355 z" />
      <path
         id="path1012"
         style="font-style:normal;font-variant:normal;font-weight:bold;font-stretch:normal;font-size:5.33096px;font-family:Montserrat;-inkscape-font-specification:'Montserrat, Bold';font-variant-ligatures:normal;font-variant-caps:normal;font-variant-numeric:normal;font-variant-east-asian:normal;stroke-width:0.133275"
         d="m 120.07578,110.13358 c 0.1456,-1.16373 -0.55584,-2.12722 -1.6614,-2.26554 -1.10555,-0.13833 -2.02275,0.62263 -2.16836,1.78637 -0.14627,1.16903 0.56113,2.12789 1.66139,2.26555 1.10026,0.13766 2.0221,-0.61735 2.16837,-1.78638 z m -0.72998,-0.0913 c -0.0827,0.66121 -0.62631,1.09822 -1.32984,1.0102 -0.70354,-0.088 -1.12269,-0.64549 -1.03996,-1.30671 0.0827,-0.66121 0.62631,-1.09822 1.32984,-1.01019 0.70353,0.088 1.12269,0.64549 1.03996,1.3067 z" />
      <path
         id="path1014"
         style="font-style:normal;font-variant:normal;font-weight:bold;font-stretch:normal;font-size:5.33096px;font-family:Montserrat;-inkscape-font-specification:'Montserrat, Bold';font-variant-ligatures:normal;font-variant-caps:normal;font-variant-numeric:normal;font-variant-east-asian:normal;stroke-width:0.133275"
         d="m 121.09944,104.81346 0.2251,-0.87787 -4.02918,0.68943 -0.21185,0.82622 3.20161,2.53801 0.2198,-0.8572 -0.69249,-0.51878 0.43033,-1.67827 z m -1.85332,1.36842 -1.23695,-0.92805 1.5309,-0.21833 z" />
      <path
         id="path1016"
         style="font-style:normal;font-variant:normal;font-weight:bold;font-stretch:normal;font-size:5.33096px;font-family:Montserrat;-inkscape-font-specification:'Montserrat, Bold';font-variant-ligatures:normal;font-variant-caps:normal;font-variant-numeric:normal;font-variant-east-asian:normal;stroke-width:0.133275"
         d="m 121.46572,103.56906 0.62502,-1.57581 c 0.4501,-1.13479 0.0748,-2.184025 -0.97571,-2.600709 -1.05054,-0.416684 -2.04297,0.09007 -2.49306,1.224859 l -0.62503,1.57582 z m -0.34066,-1.06418 -2.15064,-0.85302 0.29089,-0.7334 c 0.2732,-0.6888 0.86336,-0.976609 1.52738,-0.71323 0.66403,0.26337 0.89647,0.87745 0.62326,1.56625 z" />
      <path
         id="path1018"
         style="font-style:normal;font-variant:normal;font-weight:bold;font-stretch:normal;font-size:5.33096px;font-family:Montserrat;-inkscape-font-specification:'Montserrat, Bold';font-variant-ligatures:normal;font-variant-caps:normal;font-variant-numeric:normal;font-variant-east-asian:normal;stroke-width:0.133275"
         d="m 123.18321,99.514967 0.3909,-0.770084 -3.32752,-1.689078 -0.3909,0.770083 z" />
      <path
         id="path1020"
         style="font-style:normal;font-variant:normal;font-weight:bold;font-stretch:normal;font-size:5.33096px;font-family:Montserrat;-inkscape-font-specification:'Montserrat, Bold';font-variant-ligatures:normal;font-variant-caps:normal;font-variant-numeric:normal;font-variant-east-asian:normal;stroke-width:0.133275"
         d="m 122.16546,93.78454 1.91907,1.204304 -2.90519,0.367081 -0.37971,0.605074 3.16084,1.98356 0.45338,-0.722476 -1.91908,-1.204304 2.90803,-0.371597 0.37687,-0.600558 -3.16083,-1.98356 z" />
      <path
         id="path1022"
         style="font-style:normal;font-variant:normal;font-weight:bold;font-stretch:normal;font-size:5.33096px;font-family:Montserrat;-inkscape-font-specification:'Montserrat, Bold';font-variant-ligatures:normal;font-variant-caps:normal;font-variant-numeric:normal;font-variant-east-asian:normal;stroke-width:0.133275"
         d="m 127.25877,91.847136 c -0.0477,0.243428 -0.15305,0.439594 -0.30159,0.62113 -0.45237,0.55286 -1.15003,0.622601 -1.69052,0.180357 -0.54873,-0.448995 -0.61022,-1.139904 -0.1511,-1.701016 0.23969,-0.292933 0.54202,-0.451958 0.93698,-0.480076 l -0.045,-0.753172 c -0.5555,0.01386 -1.07313,0.292904 -1.48837,0.80038 -0.75282,0.920057 -0.67672,2.098202 0.19382,2.810518 0.87055,0.712317 2.04045,0.553697 2.78315,-0.353983 0.33759,-0.412582 0.56753,-0.954572 0.58818,-1.468063 l -1.17173,-0.958758 -0.49963,0.610621 z" />
      <path
         id="path1024"
         style="font-style:normal;font-variant:normal;font-weight:bold;font-stretch:normal;font-size:5.33096px;font-family:Montserrat;-inkscape-font-specification:'Montserrat, Bold';font-variant-ligatures:normal;font-variant-caps:normal;font-variant-numeric:normal;font-variant-east-asian:normal;stroke-width:0.133275"
         d="m 129.0398,88.989377 q -0.31879,-0.353956 -0.294,-0.828185 0.0248,-0.474228 0.37875,-0.793014 0.35202,-0.317044 0.82625,-0.292251 0.47423,0.02479 0.79302,0.378749 0.31704,0.352022 0.29225,0.826251 -0.0248,0.474228 -0.37682,0.791272 -0.35395,0.318786 -0.82818,0.293993 -0.47423,-0.02479 -0.79127,-0.376815 z" />
      <path
         id="path1026"
         style="font-style:normal;font-variant:normal;font-weight:bold;font-stretch:normal;font-size:5.33096px;font-family:Montserrat;-inkscape-font-specification:'Montserrat, Bold';font-variant-ligatures:normal;font-variant-caps:normal;font-variant-numeric:normal;font-variant-east-asian:normal;stroke-width:0.133275"
         d="m 133.90538,86.897496 2.28092,-1.508799 -0.38823,-0.586901 -1.56063,1.032336 -1.67056,-2.525455 -0.72029,0.476462 z" />
      <path
         id="path1028"
         style="font-style:normal;font-variant:normal;font-weight:bold;font-stretch:normal;font-size:5.33096px;font-family:Montserrat;-inkscape-font-specification:'Montserrat, Bold';font-variant-ligatures:normal;font-variant-caps:normal;font-variant-numeric:normal;font-variant-east-asian:normal;stroke-width:0.133275"
         d="m 138.18672,84.404131 c 1.04531,-0.531799 1.44995,-1.652781 0.94474,-2.645826 -0.50521,-0.993046 -1.64953,-1.325997 -2.69484,-0.794197 -1.05006,0.534217 -1.44753,1.657532 -0.94474,2.645826 0.50279,0.988294 1.64478,1.328414 2.69484,0.794197 z m -0.33358,-0.655695 c -0.59393,0.302159 -1.26053,0.097 -1.58203,-0.534934 -0.3215,-0.631938 -0.0948,-1.29154 0.49909,-1.593699 0.59393,-0.302159 1.26053,-0.097 1.58203,0.534934 0.3215,0.631938 0.0948,1.29154 -0.49909,1.593699 z" />
      <path
         id="path1030"
         style="font-style:normal;font-variant:normal;font-weight:bold;font-stretch:normal;font-size:5.33096px;font-family:Montserrat;-inkscape-font-specification:'Montserrat, Bold';font-variant-ligatures:normal;font-variant-caps:normal;font-variant-numeric:normal;font-variant-east-asian:normal;stroke-width:0.133275"
         d="m 143.16755,82.273103 0.85345,-0.304851 -2.82663,-2.952924 -0.80325,0.286919 -0.31106,4.073702 0.83337,-0.297679 0.0423,-0.864226 1.6316,-0.582804 z m -2.17136,-0.769804 0.0767,-1.544491 1.03785,1.14639 z" />
      <path
         id="path1032"
         style="font-style:normal;font-variant:normal;font-weight:bold;font-stretch:normal;font-size:5.33096px;font-family:Montserrat;-inkscape-font-specification:'Montserrat, Bold';font-variant-ligatures:normal;font-variant-caps:normal;font-variant-numeric:normal;font-variant-east-asian:normal;stroke-width:0.133275"
         d="m 144.40386,81.880664 1.65557,-0.364585 c 1.19223,-0.262546 1.85139,-1.161003 1.60833,-2.264721 -0.24306,-1.103718 -1.21865,-1.642177 -2.41087,-1.37963 l -1.65558,0.364584 z m 0.69092,-0.878159 -0.49758,-2.259498 0.77052,-0.169681 c 0.72367,-0.159362 1.29259,0.168423 1.44622,0.866056 0.15363,0.697633 -0.22498,1.23408 -0.94864,1.393442 z" />
      <path
         id="path1034"
         style="font-style:normal;font-variant:normal;font-weight:bold;font-stretch:normal;font-size:5.33096px;font-family:Montserrat;-inkscape-font-specification:'Montserrat, Bold';font-variant-ligatures:normal;font-variant-caps:normal;font-variant-numeric:normal;font-variant-east-asian:normal;stroke-width:0.133275"
         d="m 148.72439,81.032625 0.85682,-0.108137 -0.46726,-3.702303 -0.85682,0.108137 z" />
      <path
         id="path1036"
         style="font-style:normal;font-variant:normal;font-weight:bold;font-stretch:normal;font-size:5.33096px;font-family:Montserrat;-inkscape-font-specification:'Montserrat, Bold';font-variant-ligatures:normal;font-variant-caps:normal;font-variant-numeric:normal;font-variant-east-asian:normal;stroke-width:0.133275"
         d="m 152.89417,76.974154 0.0815,2.264192 -1.93545,-2.197476 -0.71389,0.02569 0.1342,3.729258 0.8524,-0.03067 -0.0815,-2.264192 1.94078,2.197285 0.70856,-0.0255 -0.1342,-3.729258 z" />
      <path
         id="path1038"
         style="font-style:normal;font-variant:normal;font-weight:bold;font-stretch:normal;font-size:5.33096px;font-family:Montserrat;-inkscape-font-specification:'Montserrat, Bold';font-variant-ligatures:normal;font-variant-caps:normal;font-variant-numeric:normal;font-variant-east-asian:normal;stroke-width:0.133275"
         d="m 157.3574,80.096561 c -0.22808,0.0975 -0.44956,0.120663 -0.68321,0.09993 -0.71155,-0.06314 -1.16156,-0.600804 -1.09983,-1.296426 0.0627,-0.706243 0.59939,-1.145639 1.32156,-1.081554 0.37702,0.03346 0.67853,0.19401 0.9239,0.504787 l 0.59749,-0.460763 c -0.32386,-0.451539 -0.8457,-0.722627 -1.49884,-0.780586 -1.18416,-0.105081 -2.11554,0.620407 -2.21497,1.740837 -0.0994,1.120429 0.68966,1.99859 1.85788,2.102257 0.53101,0.04712 1.10848,-0.06754 1.54469,-0.339245 l 0.13383,-1.508067 -0.7859,-0.06974 z" />
    </g>
    <g
       inkscape:export-ydpi="109.34794"
       inkscape:export-xdpi="109.34794"
       transform="translate(59.12002,80.073951)"
       style="font-size:14.8483px;line-height:1.25;font-family:sans-serif;stroke-width:0.371208"
       id="text159"
       aria-label="SCROLL ● SCROLL ● SCROLL ● SCROLL ● ">
      <path
         id="path168"
         style="font-style:normal;font-variant:normal;font-weight:800;font-stretch:normal;font-size:14.8483px;font-family:Montserrat;-inkscape-font-specification:'Montserrat, Ultra-Bold';font-variant-ligatures:normal;font-variant-caps:normal;font-variant-numeric:normal;font-variant-east-asian:normal;stroke-width:0.371208"
         d="m 413.41858,156.36073 c -0.24696,3.07856 1.17122,4.71172 2.97691,4.85657 3.8186,0.30632 3.10589,-5.66457 4.68957,-5.53752 0.51803,0.0416 0.89683,0.51882 0.79828,1.74728 -0.0724,0.90285 -0.4172,1.85832 -1.02957,2.80723 l 2.10329,1.07738 c 0.67395,-0.97376 1.09637,-2.3401 1.20441,-3.68697 0.24696,-3.07855 -1.14161,-4.70933 -2.99171,-4.85775 -3.84819,-0.30869 -3.12187,5.67818 -4.76476,5.54639 -0.50322,-0.0404 -0.80565,-0.5413 -0.70829,-1.75496 0.0962,-1.19886 0.61507,-2.46809 1.29552,-3.33705 l -2.08374,-1.1354 c -0.7592,0.92224 -1.35337,2.57272 -1.48991,4.2748 z" />
      <path
         id="path170"
         style="font-style:normal;font-variant:normal;font-weight:800;font-stretch:normal;font-size:14.8483px;font-family:Montserrat;-inkscape-font-specification:'Montserrat, Ultra-Bold';font-variant-ligatures:normal;font-variant-caps:normal;font-variant-numeric:normal;font-variant-east-asian:normal;stroke-width:0.371208"
         d="m 411.52733,167.2745 c -0.48088,1.85409 -0.19304,3.52405 0.77516,4.81826 l 2.10818,-1.38601 c -0.59773,-0.82997 -0.81324,-1.7142 -0.56349,-2.67717 0.42869,-1.65287 1.87673,-2.50447 3.60146,-2.05715 1.72473,0.44733 2.57633,1.89537 2.14764,3.54824 -0.24975,0.96297 -0.86786,1.631 -1.79364,2.06583 l 1.1688,2.23593 c 1.47517,-0.66049 2.53838,-1.98006 3.01925,-3.83414 0.82756,-3.19075 -0.73511,-6.0964 -3.7965,-6.89041 -3.0614,-0.794 -5.83931,0.98587 -6.66686,4.17662 z" />
      <path
         id="path172"
         style="font-style:normal;font-variant:normal;font-weight:800;font-stretch:normal;font-size:14.8483px;font-family:Montserrat;-inkscape-font-specification:'Montserrat, Ultra-Bold';font-variant-ligatures:normal;font-variant-caps:normal;font-variant-numeric:normal;font-variant-east-asian:normal;stroke-width:0.371208"
         d="m 407.34567,178.70248 -1.34136,2.84775 3.91061,-0.63638 c 0.0137,1.43439 0.71824,2.5869 2.10182,3.23859 2.14924,1.01235 4.23834,0.0268 5.44683,-2.53885 l 2.02469,-4.29849 -9.40293,-4.42901 -1.25278,2.65969 2.49849,1.17685 -0.68333,1.45074 z m 5.9365,2.76341 c -0.8597,-0.40494 -1.11073,-1.19611 -0.5919,-2.2976 l 0.69599,-1.4776 2.75371,1.29706 -0.69598,1.47761 c -0.51883,1.10148 -1.28869,1.4118 -2.16182,1.00053 z" />
      <path
         id="path174"
         style="font-style:normal;font-variant:normal;font-weight:800;font-stretch:normal;font-size:14.8483px;font-family:Montserrat;-inkscape-font-specification:'Montserrat, Ultra-Bold';font-variant-ligatures:normal;font-variant-caps:normal;font-variant-numeric:normal;font-variant-east-asian:normal;stroke-width:0.371208"
         d="m 401.97691,186.87894 c -1.98346,2.66988 -1.60895,6.00017 0.89406,7.85967 2.50302,1.8595 5.79959,1.25647 7.78306,-1.41341 1.98346,-2.66988 1.60896,-6.00017 -0.89406,-7.85966 -2.50301,-1.8595 -5.79959,-1.25648 -7.78306,1.4134 z m 1.95474,1.45218 c 0.9386,-1.26343 2.61516,-1.55319 4.05737,-0.48176 1.44221,1.07142 1.64888,2.76024 0.71027,4.02366 -0.9386,1.26343 -2.61515,1.55319 -4.05737,0.48176 -1.44221,-1.07142 -1.64888,-2.76023 -0.71027,-4.02366 z" />
      <path
         id="path176"
         style="font-style:normal;font-variant:normal;font-weight:800;font-stretch:normal;font-size:14.8483px;font-family:Montserrat;-inkscape-font-specification:'Montserrat, Ultra-Bold';font-variant-ligatures:normal;font-variant-caps:normal;font-variant-numeric:normal;font-variant-east-asian:normal;stroke-width:0.371208"
         d="m 397.50201,192.66575 -5.77706,5.38744 1.5899,1.70488 3.62695,-3.38234 5.49883,5.89651 2.15011,-2.0051 z" />
      <path
         id="path178"
         style="font-style:normal;font-variant:normal;font-weight:800;font-stretch:normal;font-size:14.8483px;font-family:Montserrat;-inkscape-font-specification:'Montserrat, Ultra-Bold';font-variant-ligatures:normal;font-variant-caps:normal;font-variant-numeric:normal;font-variant-east-asian:normal;stroke-width:0.371208"
         d="m 390.77297,198.72489 -6.52623,4.45053 1.3134,1.92597 4.0973,-2.79412 4.54255,6.66117 2.42893,-1.6564 z" />
      <path
         id="path180"
         style="font-style:normal;font-variant:normal;font-weight:800;font-stretch:normal;font-size:14.8483px;font-family:Montserrat;-inkscape-font-specification:'Montserrat, Ultra-Bold';font-variant-ligatures:normal;font-variant-caps:normal;font-variant-numeric:normal;font-variant-east-asian:normal;stroke-width:0.371208"
         d="m 380.63557,209.62287 q 0.48358,1.23551 -0.0465,2.44733 -0.53005,1.21182 -1.76556,1.6954 -1.22876,0.48095 -2.44057,-0.0491 -1.21182,-0.53005 -1.69541,-1.76556 -0.48094,-1.22875 0.0491,-2.44057 0.53004,-1.21182 1.7588,-1.69276 1.23551,-0.48359 2.44733,0.0465 1.21182,0.53004 1.69276,1.7588 z" />
      <path
         id="path182"
         style="font-style:normal;font-variant:normal;font-weight:800;font-stretch:normal;font-size:14.8483px;font-family:Montserrat;-inkscape-font-specification:'Montserrat, Ultra-Bold';font-variant-ligatures:normal;font-variant-caps:normal;font-variant-numeric:normal;font-variant-east-asian:normal;stroke-width:0.371208"
         d="m 362.34527,210.23772 c -3.06257,0.39895 -4.36493,2.12588 -4.13093,3.92219 0.49485,3.79877 6.1868,1.85939 6.39203,3.43485 0.0671,0.51534 -0.32088,0.98515 -1.54297,1.14435 -0.89815,0.117 -1.90446,-0.0214 -2.96001,-0.42299 l -0.6162,2.28141 c 1.09267,0.45661 2.51699,0.58552 3.85687,0.41097 3.06257,-0.39895 4.36877,-2.09643 4.12901,-3.93691 -0.49869,-3.82822 -6.20344,-1.8722 -6.41634,-3.50655 -0.0652,-0.50061 0.36183,-0.90064 1.56919,-1.05792 1.19264,-0.15536 2.54205,0.0881 3.53357,0.57288 l 0.67702,-2.27436 c -1.06001,-0.55071 -2.79799,-0.78849 -4.49124,-0.56792 z" />
      <path
         id="path184"
         style="font-style:normal;font-variant:normal;font-weight:800;font-stretch:normal;font-size:14.8483px;font-family:Montserrat;-inkscape-font-specification:'Montserrat, Ultra-Bold';font-variant-ligatures:normal;font-variant-caps:normal;font-variant-numeric:normal;font-variant-east-asian:normal;stroke-width:0.371208"
         d="m 351.27569,210.66426 c -1.91372,-0.0809 -3.48605,0.55107 -4.54816,1.76939 l 1.7977,1.77024 c 0.68599,-0.75865 1.50527,-1.15499 2.49922,-1.11296 1.70603,0.0722 2.84265,1.30914 2.76736,3.08935 -0.0753,1.7802 -1.31227,2.91682 -3.0183,2.84467 -0.99395,-0.042 -1.77685,-0.50613 -2.39634,-1.31999 l -1.94073,1.61215 c 0.95546,1.30364 2.46882,2.06613 4.38254,2.14706 3.29337,0.13927 5.80622,-1.99856 5.93984,-5.15842 0.13363,-3.15987 -2.18975,-5.50222 -5.48313,-5.64149 z" />
      <path
         id="path186"
         style="font-style:normal;font-variant:normal;font-weight:800;font-stretch:normal;font-size:14.8483px;font-family:Montserrat;-inkscape-font-specification:'Montserrat, Ultra-Bold';font-variant-ligatures:normal;font-variant-caps:normal;font-variant-numeric:normal;font-variant-east-asian:normal;stroke-width:0.371208"
         d="m 339.2219,208.99156 -3.06697,-0.70889 1.44885,3.68763 c -1.39906,0.3167 -2.37653,1.24899 -2.72095,2.73908 -0.53501,2.3147 0.86998,4.14818 3.63315,4.78685 l 4.6294,1.07003 2.34069,-10.12682 -2.86445,-0.66208 -0.62195,2.69084 -1.56242,-0.36113 z m -1.44569,6.38658 c 0.214,-0.92588 0.93421,-1.33852 2.1205,-1.06433 l 1.59135,0.36783 -0.68548,2.96571 -1.59136,-0.36782 c -1.18628,-0.2742 -1.65236,-0.96104 -1.43501,-1.90139 z" />
      <path
         id="path188"
         style="font-style:normal;font-variant:normal;font-weight:800;font-stretch:normal;font-size:14.8483px;font-family:Montserrat;-inkscape-font-specification:'Montserrat, Ultra-Bold';font-variant-ligatures:normal;font-variant-caps:normal;font-variant-numeric:normal;font-variant-east-asian:normal;stroke-width:0.371208"
         d="m 330.0972,205.46825 c -3.02721,-1.37781 -6.20433,-0.3115 -7.49603,2.52651 -1.2917,2.83801 -0.009,5.93413 3.01814,7.31195 3.02722,1.37781 6.20433,0.3115 7.49603,-2.52651 1.2917,-2.83801 0.009,-5.93413 -3.01814,-7.31195 z m -1.00875,2.21636 c 1.43252,0.652 2.06828,2.23016 1.32402,3.8654 -0.74427,1.63524 -2.35188,2.19234 -3.7844,1.54034 -1.43253,-0.652 -2.06829,-2.23016 -1.32403,-3.8654 0.74427,-1.63524 2.35188,-2.19234 3.78441,-1.54034 z" />
      <path
         id="path190"
         style="font-style:normal;font-variant:normal;font-weight:800;font-stretch:normal;font-size:14.8483px;font-family:Montserrat;-inkscape-font-specification:'Montserrat, Ultra-Bold';font-variant-ligatures:normal;font-variant-caps:normal;font-variant-numeric:normal;font-variant-east-asian:normal;stroke-width:0.371208"
         d="m 323.50054,202.30688 -6.47615,-4.5231 -1.33482,1.91119 4.06585,2.83969 -4.61663,6.61005 2.4103,1.68341 z" />
      <path
         id="path192"
         style="font-style:normal;font-variant:normal;font-weight:800;font-stretch:normal;font-size:14.8483px;font-family:Montserrat;-inkscape-font-specification:'Montserrat, Ultra-Bold';font-variant-ligatures:normal;font-variant-caps:normal;font-variant-numeric:normal;font-variant-east-asian:normal;stroke-width:0.371208"
         d="m 316.1693,196.99228 -5.71678,-5.45136 -1.60876,1.6871 3.5891,3.42247 -5.56407,5.83498 2.12767,2.02889 z" />
      <path
         id="path194"
         style="font-style:normal;font-variant:normal;font-weight:800;font-stretch:normal;font-size:14.8483px;font-family:Montserrat;-inkscape-font-specification:'Montserrat, Ultra-Bold';font-variant-ligatures:normal;font-variant-caps:normal;font-variant-numeric:normal;font-variant-east-asian:normal;stroke-width:0.371208"
         d="m 303.39307,189.36623 q -1.10589,0.73303 -2.40218,0.4702 -1.29629,-0.26284 -2.02933,-1.36873 -0.72902,-1.09985 -0.46619,-2.39614 0.26284,-1.29629 1.36873,-2.02933 1.09985,-0.72902 2.39614,-0.46619 1.2963,0.26284 2.02532,1.36269 0.73304,1.10589 0.4702,2.40218 -0.26284,1.2963 -1.36269,2.02532 z" />
      <path
         id="path196"
         style="font-style:normal;font-variant:normal;font-weight:800;font-stretch:normal;font-size:14.8483px;font-family:Montserrat;-inkscape-font-specification:'Montserrat, Ultra-Bold';font-variant-ligatures:normal;font-variant-caps:normal;font-variant-numeric:normal;font-variant-east-asian:normal;stroke-width:0.371208"
         d="m 298.93005,171.61988 c -1.03667,-2.90926 -2.99967,-3.81759 -4.70607,-3.20954 -3.6086,1.28587 -0.51101,6.43993 -2.0076,6.97322 -0.48954,0.17444 -1.03069,-0.10562 -1.44437,-1.26653 -0.30402,-0.85319 -0.3812,-1.86604 -0.2116,-2.98258 l -2.36009,-0.12055 c -0.21558,1.16445 -0.0408,2.58388 0.41274,3.85668 1.03667,2.90927 2.97169,3.82756 4.72005,3.20456 3.63658,-1.29584 0.52001,-6.4589 2.07255,-7.01213 0.47556,-0.16945 0.95674,0.1635 1.36543,1.31042 0.4037,1.13293 0.45066,2.50333 0.18621,3.57485 l 2.36604,0.18149 c 0.31445,-1.1524 0.17987,-2.9014 -0.39329,-4.50989 z" />
      <path
         id="path198"
         style="font-style:normal;font-variant:normal;font-weight:800;font-stretch:normal;font-size:14.8483px;font-family:Montserrat;-inkscape-font-specification:'Montserrat, Ultra-Bold';font-variant-ligatures:normal;font-variant-caps:normal;font-variant-numeric:normal;font-variant-east-asian:normal;stroke-width:0.371208"
         d="m 296.19009,160.88794 c -0.31989,-1.88853 -1.26585,-3.29452 -2.67885,-4.07925 l -1.35649,2.1273 c 0.88502,0.51272 1.44348,1.23136 1.60962,2.21222 0.28517,1.68358 -0.68764,3.05314 -2.44441,3.35071 -1.75677,0.29756 -3.12633,-0.67524 -3.4115,-2.35881 -0.16614,-0.98087 0.1245,-1.84333 0.7913,-2.6189 l -1.98138,-1.56192 c -1.07575,1.20628 -1.50593,2.84536 -1.18605,4.73389 0.5505,3.25003 3.16531,5.26187 6.28358,4.73369 3.11827,-0.52818 4.92468,-3.2889 4.37418,-6.53893 z" />
      <path
         id="path200"
         style="font-style:normal;font-variant:normal;font-weight:800;font-stretch:normal;font-size:14.8483px;font-family:Montserrat;-inkscape-font-specification:'Montserrat, Ultra-Bold';font-variant-ligatures:normal;font-variant-caps:normal;font-variant-numeric:normal;font-variant-east-asian:normal;stroke-width:0.371208"
         d="m 295.31454,148.74921 0.0507,-3.14743 -3.30235,2.18913 c -0.60272,-1.30168 -1.71908,-2.0622 -3.24825,-2.08685 -2.37542,-0.0383 -3.87394,1.71956 -3.91966,4.55521 l -0.0766,4.75084 10.39246,0.16758 0.0474,-2.93958 -2.76142,-0.0445 0.0258,-1.60341 z m -6.54773,-0.0759 c 0.95017,0.0153 1.50451,0.63312 1.48488,1.85052 l -0.0263,1.6331 -3.04351,-0.0491 0.0263,-1.6331 c 0.0196,-1.21741 0.59361,-1.81701 1.55862,-1.80145 z" />
      <path
         id="path202"
         style="font-style:normal;font-variant:normal;font-weight:800;font-stretch:normal;font-size:14.8483px;font-family:Montserrat;-inkscape-font-specification:'Montserrat, Ultra-Bold';font-variant-ligatures:normal;font-variant-caps:normal;font-variant-numeric:normal;font-variant-east-asian:normal;stroke-width:0.371208"
         d="m 296.83062,139.08629 c 0.70667,-3.25008 -1.00722,-6.12995 -4.05417,-6.79245 -3.04695,-0.6625 -5.80192,1.2457 -6.50859,4.49578 -0.70667,3.25008 1.00723,6.12995 4.05418,6.79245 3.04695,0.6625 5.80192,-1.2457 6.50858,-4.49578 z m -2.37952,-0.51738 c -0.3344,1.53798 -1.74248,2.49303 -3.49811,2.1113 -1.75562,-0.38173 -2.64001,-1.83522 -2.3056,-3.37321 0.3344,-1.53798 1.74248,-2.49303 3.4981,-2.1113 1.75563,0.38172 2.64002,1.83522 2.30561,3.37321 z" />
      <path
         id="path204"
         style="font-style:normal;font-variant:normal;font-weight:800;font-stretch:normal;font-size:14.8483px;font-family:Montserrat;-inkscape-font-specification:'Montserrat, Ultra-Bold';font-variant-ligatures:normal;font-variant-caps:normal;font-variant-numeric:normal;font-variant-east-asian:normal;stroke-width:0.371208"
         d="m 298.52559,131.97004 3.05864,-7.2831 -2.14933,-0.90264 -1.92028,4.57247 -7.43369,-3.12189 -1.13837,2.71063 z" />
      <path
         id="path206"
         style="font-style:normal;font-variant:normal;font-weight:800;font-stretch:normal;font-size:14.8483px;font-family:Montserrat;-inkscape-font-specification:'Montserrat, Ultra-Bold';font-variant-ligatures:normal;font-variant-caps:normal;font-variant-numeric:normal;font-variant-east-asian:normal;stroke-width:0.371208"
         d="m 302.17961,123.68501 4.1339,-6.73125 -1.98648,-1.21997 -2.59534,4.22601 -6.87043,-4.21937 -1.53856,2.50524 z" />
      <path
         id="path208"
         style="font-style:normal;font-variant:normal;font-weight:800;font-stretch:normal;font-size:14.8483px;font-family:Montserrat;-inkscape-font-specification:'Montserrat, Ultra-Bold';font-variant-ligatures:normal;font-variant-caps:normal;font-variant-numeric:normal;font-variant-east-asian:normal;stroke-width:0.371208"
         d="m 306.96587,109.59733 q -0.94812,-0.92812 -0.96223,-2.25071 -0.0141,-1.3226 0.91402,-2.27072 0.92305,-0.94294 2.24564,-0.95704 1.3226,-0.0141 2.27072,0.91402 0.94294,0.92304 0.95704,2.24564 0.0141,1.32259 -0.90895,2.26553 -0.92811,0.94812 -2.25071,0.96222 -1.32259,0.0141 -2.26553,-0.90894 z" />
      <path
         id="path210"
         style="font-style:normal;font-variant:normal;font-weight:800;font-stretch:normal;font-size:14.8483px;font-family:Montserrat;-inkscape-font-specification:'Montserrat, Ultra-Bold';font-variant-ligatures:normal;font-variant-caps:normal;font-variant-numeric:normal;font-variant-east-asian:normal;stroke-width:0.371208"
         d="m 323.37975,101.51171 c 2.62516,-1.62697 3.09901,-3.737391 2.14473,-5.277149 -2.01806,-3.256211 -6.40283,0.858786 -7.23978,-0.491658 -0.27377,-0.441734 -0.11415,-1.02978 0.93339,-1.679003 0.76988,-0.47714 1.74365,-0.766212 2.87085,-0.835928 l -0.37995,-2.332423 c -1.18372,0.03488 -2.53436,0.505101 -3.68287,1.216899 -2.62516,1.626969 -3.11466,3.712148 -2.13691,5.289769 2.03371,3.281453 6.42328,-0.853987 7.29151,0.546941 0.26595,0.429113 0.042,0.969698 -0.99293,1.611099 -1.0223,0.633583 -2.35196,0.968523 -3.45516,0.936023 l 0.32164,2.35109 c 1.19279,0.0643 2.87407,-0.43614 4.32548,-1.33566 z" />
      <path
         id="path212"
         style="font-style:normal;font-variant:normal;font-weight:800;font-stretch:normal;font-size:14.8483px;font-family:Montserrat;-inkscape-font-specification:'Montserrat, Ultra-Bold';font-variant-ligatures:normal;font-variant-caps:normal;font-variant-numeric:normal;font-variant-east-asian:normal;stroke-width:0.371208"
         d="m 333.29013,96.564966 c 1.77825,-0.711829 2.95253,-1.933596 3.42087,-3.48054 l -2.36596,-0.876201 c -0.31407,0.973393 -0.89843,1.67113 -1.82202,2.04084 -1.58526,0.634576 -3.1295,-0.02677 -3.79167,-1.680956 -0.66216,-1.654186 -8.2e-4,-3.198422 1.58445,-3.832998 0.92358,-0.36971 1.82799,-0.267924 2.72698,0.219881 l 1.10784,-2.266752 c -1.40641,-0.796488 -3.09938,-0.870499 -4.87763,-0.15867 -3.06025,1.225009 -4.47396,4.20597 -3.29861,7.14215 1.17534,2.936181 4.25551,4.118255 7.31575,2.893246 z" />
      <path
         id="path214"
         style="font-style:normal;font-variant:normal;font-weight:800;font-stretch:normal;font-size:14.8483px;font-family:Montserrat;-inkscape-font-specification:'Montserrat, Ultra-Bold';font-variant-ligatures:normal;font-variant-caps:normal;font-variant-numeric:normal;font-variant-east-asian:normal;stroke-width:0.371208"
         d="m 344.97246,93.158077 3.08859,-0.607879 -2.83071,-2.772168 c 1.14706,-0.86135 1.65758,-2.111948 1.36224,-3.612535 -0.45878,-2.33101 -2.4909,-3.42924 -5.27354,-2.881575 l -4.66202,0.917554 2.00714,10.198168 2.88463,-0.567736 -0.53333,-2.709799 1.57343,-0.309675 z m -1.29364,-6.419111 c 0.18351,0.932404 -0.30485,1.60358 -1.49949,1.838703 l -1.60257,0.315409 -0.58781,-2.986606 1.60257,-0.315409 c 1.19464,-0.235123 1.90092,0.20093 2.0873,1.147903 z" />
      <path
         id="path216"
         style="font-style:normal;font-variant:normal;font-weight:800;font-stretch:normal;font-size:14.8483px;font-family:Montserrat;-inkscape-font-specification:'Montserrat, Ultra-Bold';font-variant-ligatures:normal;font-variant-caps:normal;font-variant-numeric:normal;font-variant-east-asian:normal;stroke-width:0.371208"
         d="m 354.74053,92.631344 c 3.326,0.01094 5.78348,-2.267626 5.79374,-5.385752 0.0102,-3.118126 -2.43218,-5.412811 -5.75818,-5.423752 -3.326,-0.01094 -5.78348,2.267627 -5.79374,5.385753 -0.0102,3.118126 2.43218,5.412811 5.75818,5.423751 z m 0.008,-2.435108 c -1.57391,-0.0052 -2.80245,-1.18224 -2.79654,-2.978875 0.006,-1.796634 1.24217,-2.96559 2.81608,-2.960413 1.57391,0.0052 2.80245,1.182241 2.79654,2.978875 -0.006,1.796635 -1.24217,2.965591 -2.81608,2.960413 z" />
      <path
         id="path218"
         style="font-style:normal;font-variant:normal;font-weight:800;font-stretch:normal;font-size:14.8483px;font-family:Montserrat;-inkscape-font-specification:'Montserrat, Ultra-Bold';font-variant-ligatures:normal;font-variant-caps:normal;font-variant-numeric:normal;font-variant-east-asian:normal;stroke-width:0.371208"
         d="m 362.05433,92.791077 7.76519,1.449359 0.42773,-2.291608 -4.87514,-0.909936 1.47932,-7.925752 -2.89005,-0.539423 z" />
      <path
         id="path220"
         style="font-style:normal;font-variant:normal;font-weight:800;font-stretch:normal;font-size:14.8483px;font-family:Montserrat;-inkscape-font-specification:'Montserrat, Ultra-Bold';font-variant-ligatures:normal;font-variant-caps:normal;font-variant-numeric:normal;font-variant-east-asian:normal;stroke-width:0.371208"
         d="m 370.9249,94.609366 7.45183,2.620898 0.77346,-2.19913 -4.6784,-1.645451 2.67509,-7.605909 -2.77343,-0.975447 z" />
      <path
         id="path222"
         style="font-style:normal;font-variant:normal;font-weight:800;font-stretch:normal;font-size:14.8483px;font-family:Montserrat;-inkscape-font-specification:'Montserrat, Ultra-Bold';font-variant-ligatures:normal;font-variant-caps:normal;font-variant-numeric:normal;font-variant-east-asian:normal;stroke-width:0.371208"
         d="m 385.70863,96.326094 q 0.70917,-1.121345 1.99953,-1.411894 1.29036,-0.29055 2.41171,0.41862 1.11522,0.705295 1.40577,1.995658 0.29055,1.290363 -0.41862,2.411708 -0.7053,1.115214 -1.99566,1.405764 -1.29037,0.29055 -2.40558,-0.41474 -1.12135,-0.70917 -1.4119,-1.999535 -0.29055,-1.290364 0.41475,-2.405581 z" />
    </g>
  </g>
</svg>
