<?xml version="1.0" encoding="UTF-8" standalone="no"?>
<svg
   xmlns:dc="http://purl.org/dc/elements/1.1/"
   xmlns:cc="http://creativecommons.org/ns#"
   xmlns:rdf="http://www.w3.org/1999/02/22-rdf-syntax-ns#"
   xmlns:svg="http://www.w3.org/2000/svg"
   xmlns="http://www.w3.org/2000/svg"
   xmlns:xlink="http://www.w3.org/1999/xlink"
   xmlns:sodipodi="http://sodipodi.sourceforge.net/DTD/sodipodi-0.dtd"
   xmlns:inkscape="http://www.inkscape.org/namespaces/inkscape"
   inkscape:version="1.0 (4035a4fb49, 2020-05-01)"
   id="svg8"
   version="1.1"
   viewBox="0 0 316.10491 316.10491"
   height="316.10492mm"
   width="316.10492mm"
   sodipodi:docname="rotating_circle.svg">
  <defs
     id="defs2" />
  <sodipodi:namedview
     showborder="false"
     inkscape:showpageshadow="false"
     fit-margin-bottom="0"
     fit-margin-right="0"
     fit-margin-left="0"
     fit-margin-top="0"
     showgrid="false"
     inkscape:document-rotation="0"
     inkscape:current-layer="layer2"
     inkscape:document-units="mm"
     inkscape:cy="897.30569"
     inkscape:cx="1758.4764"
     inkscape:zoom="0.7"
     inkscape:pageshadow="2"
     inkscape:pageopacity="0"
     borderopacity="1.0"
     bordercolor="#666666"
     pagecolor="#383838"
     id="base" />
  <metadata
     id="metadata5">
    <rdf:RDF>
      <cc:Work
         rdf:about="">
        <dc:format>image/svg+xml</dc:format>
        <dc:type
           rdf:resource="http://purl.org/dc/dcmitype/StillImage" />
        <dc:title />
      </cc:Work>
    </rdf:RDF>
  </metadata>
  <g
     style="display:inline"
     transform="translate(58.964287,13.09859)"
     id="layer1"
     inkscape:groupmode="layer"
     inkscape:label="Canvas"
     sodipodi:insensitive="true">
    <rect
       y="-13.09859"
       x="-58.964287"
       height="316.10492"
       width="316.10492"
       id="rect2740"
       style="fill:#ffffff;fill-opacity:1;stroke:none;stroke-width:15.6418;stroke-linecap:round;stroke-linejoin:round;stroke-opacity:0.8;paint-order:stroke fill markers" />
  </g>
  <g
     style="opacity:0.997"
     inkscape:label="Layer 1"
     id="layer2"
     inkscape:groupmode="layer"
     transform="translate(-1.9580078e-7,12.342637)">
    <g
       inkscape:export-ydpi="96"
       inkscape:export-xdpi="96"
       id="g1104">
      <path
         id="path983"
         d="m 377.3246,204.07579 a 57.059582,57.059532 30 0 1 56.7939,-51.56381 57.059582,57.059532 30 0 1 50.47192,30.44324 71.838655,71.838612 30 0 0 2.30412,-4.46292 61.247454,61.247406 30 0 0 -52.77618,-30.16828 61.247454,61.247406 30 0 0 -60.61905,52.49544 71.838655,71.838612 30 0 0 3.82518,3.25627 z"
         style="fill:#ffffff;stroke:none;stroke-width:3.85345;stroke-linecap:round;stroke-miterlimit:4;stroke-dasharray:none;paint-order:stroke fill markers;fill-opacity:0" />
      <g
         transform="matrix(-0.66888457,-0.17922708,0.17922708,-0.66888457,516.36707,327.3572)"
         style="font-size:14.1738px;line-height:1.25;font-family:sans-serif;stroke-width:0.354345"
         id="text841"
         aria-label="SCROLL TO REVEAL ADDITIONAL CONTENT">
        <path
           id="path910"
           style="stroke-width:0.354345"
           d="m 238.75674,103.10552 q 0.57233,-0.187 1.21964,-0.1 0.64515,0.0804 1.19019,0.43387 0.59298,0.38873 1.05979,1.01526 0.46467,0.61995 0.78707,1.60674 0.34605,1.05915 0.42597,1.97226 0.0778,0.90654 -0.0245,1.90831 l -1.63149,0.53304 -0.0301,-0.0921 q 0.37551,-0.94542 0.39291,-2.02867 0.0174,-1.08324 -0.26202,-1.93846 -0.39549,-1.21046 -1.06865,-1.73316 -0.6753,-0.52929 -1.43184,-0.28211 -0.65128,0.21279 -0.85515,0.63616 -0.20603,0.41679 -0.16428,1.12395 0.0296,0.53639 0.13326,1.14324 0.10147,0.60028 0.18054,1.28797 0.14927,1.39283 -0.30882,2.24146 -0.46682,0.8442 -1.53913,1.19455 -1.2302,0.40193 -2.35265,-0.3817 -1.12903,-0.78149 -1.65133,-2.38009 -0.33745,-1.03283 -0.42166,-1.95911 -0.0842,-0.92627 -0.0118,-1.68528 l 1.53938,-0.50296 0.0301,0.0921 q -0.29096,0.71394 -0.30139,1.72938 -0.0191,1.01101 0.29251,1.96491 0.34175,1.04599 0.98442,1.54225 0.64053,0.48969 1.3247,0.26615 0.61181,-0.19989 0.8573,-0.62958 0.2455,-0.42969 0.16962,-1.28588 -0.0455,-0.45112 -0.16751,-1.27038 -0.12206,-0.81926 -0.16016,-1.40384 -0.0673,-1.18661 0.33761,-1.93051 0.40494,-0.74389 1.45752,-1.08779 z" />
        <path
           id="path912"
           style="stroke-width:0.354345"
           d="m 236.75973,93.20553 q 0.3086,0.277923 0.56969,0.501414 0.25823,0.217189 0.60917,0.605103 0.29427,0.33004 0.58219,0.746565 0.29137,0.407362 0.53743,0.949307 0.46351,1.020871 0.56047,1.987747 0.0878,0.963436 -0.24306,1.858535 -0.32399,0.876769 -1.08953,1.634799 -0.77184,0.76088 -1.99437,1.31595 -1.15951,0.52646 -2.22203,0.61364 -1.06253,0.0872 -1.97309,-0.24426 -0.88308,-0.32113 -1.58786,-1.01963 -0.70764,-0.70481 -1.17688,-1.73828 -0.34334,-0.756202 -0.50107,-1.589076 -0.16059,-0.839175 -0.1183,-1.968086 l 1.48089,-0.672378 0.0429,0.09453 q -0.29715,1.069808 -0.24713,1.966787 0.05,0.896978 0.44487,1.766613 0.32331,0.71209 0.81684,1.17968 0.48437,0.46415 1.17274,0.69126 0.67005,0.22022 1.50633,0.13695 0.82712,-0.0867 1.77237,-0.51589 0.98936,-0.4492 1.58128,-1.03718 0.58906,-0.594295 0.84478,-1.219651 0.26604,-0.652845 0.22681,-1.341903 -0.0484,-0.692499 -0.34595,-1.347874 -0.40915,-0.901139 -1.07558,-1.548651 -0.66643,-0.647512 -1.59587,-1.053999 l -0.0401,-0.08822 z" />
        <path
           id="path914"
           style="stroke-width:0.354345"
           d="m 232.11677,83.863305 0.9123,1.526855 -1.7493,5.060142 0.99039,1.657559 3.51712,-2.101489 0.70286,1.176332 -8.84625,5.28567 -1.48027,-2.477426 q -0.47923,-0.802045 -0.69177,-1.400638 -0.21849,-0.595043 -0.20673,-1.182541 0.0155,-0.662268 0.31913,-1.206501 0.29417,-0.546625 1.00115,-0.969053 0.95652,-0.571519 1.89163,-0.477222 0.92917,0.09785 1.76,0.746239 z m -4.71338,6.549015 q -0.38023,0.227188 -0.5897,0.537773 -0.21895,0.308194 -0.23636,0.737824 -0.0196,0.35841 0.12444,0.747981 0.13815,0.393121 0.42213,0.868407 l 0.82711,1.384269 3.33888,-1.994994 -0.70996,-1.188214 q -0.33369,-0.558461 -0.67723,-0.917539 -0.34949,-0.355528 -0.79077,-0.486899 -0.40927,-0.118256 -0.80464,-0.05133 -0.40485,0.06454 -0.9039,0.362722 z" />
        <path
           id="path916"
           style="stroke-width:0.354345"
           d="m 219.40809,82.286309 q 0.16223,-0.921571 0.75288,-1.798234 0.58641,-0.882138 1.59379,-1.661116 1.00738,-0.778979 2.01839,-1.123337 1.0013,-0.345599 1.90915,-0.268992 0.94245,0.0761 1.7551,0.55002 0.80842,0.468448 1.49003,1.349903 0.66467,0.859557 0.92611,1.785962 0.2572,0.920931 0.0962,1.832794 -0.16099,0.911863 -0.74193,1.789768 -0.58517,0.872429 -1.59802,1.655641 -0.99643,0.770511 -1.98803,1.117352 -0.99707,0.351074 -1.95047,0.283444 -0.90909,-0.0669 -1.74415,-0.558488 -0.83929,-0.497063 -1.49126,-1.340195 -0.67738,-0.87598 -0.92487,-1.79567 -0.25721,-0.92093 -0.10293,-1.818852 z m 3.21879,-2.331525 q -1.58772,1.227737 -1.89691,2.604143 -0.31467,1.38064 0.63789,2.612488 0.96102,1.242798 2.37642,1.285627 1.40568,0.04159 2.9934,-1.186149 1.60414,-1.240439 1.89939,-2.623561 0.28977,-1.378888 -0.65008,-2.594312 -0.93986,-1.215423 -2.34306,-1.276428 -1.41291,-0.06225 -3.01705,1.178192 z" />
        <path
           id="path918"
           style="stroke-width:0.354345"
           d="m 219.79085,69.41004 4.52133,4.69681 -7.42415,7.146783 -0.95034,-0.987228 6.54661,-6.302032 -3.57099,-3.709582 z" />
        <path
           id="path920"
           style="stroke-width:0.354345"
           d="m 213.82972,64.233598 4.92177,4.275361 -6.75798,7.779736 -1.03451,-0.898643 5.95918,-6.86017 -3.88725,-3.376718 z" />
        <path
           id="path922"
           style="stroke-width:0.354345"
           d="m 197.601,64.210194 3.10502,1.978634 4.88335,-7.663328 1.15563,0.736409 -4.88336,7.663328 3.10502,1.978634 -0.65458,1.027225 -7.36567,-4.693677 z" />
        <path
           id="path924"
           style="stroke-width:0.354345"
           d="m 190.61877,60.827945 q -0.25945,-0.899055 -0.11437,-1.946123 0.13888,-1.050124 0.70121,-2.192667 0.56233,-1.142542 1.319,-1.896318 0.7474,-0.750623 1.59649,-1.080945 0.87994,-0.345992 1.81819,-0.277602 0.93205,0.06533 1.93178,0.557371 0.97488,0.479814 1.61698,1.196947 0.6359,0.714078 0.89219,1.603868 0.2563,0.88979 0.12048,1.933704 -0.14203,1.040858 -0.70742,2.18961 -0.55621,1.130124 -1.29435,1.877593 -0.74119,0.753679 -1.62725,1.11209 -0.84593,0.339588 -1.81208,0.265183 -0.97236,-0.07746 -1.92862,-0.548106 -0.99352,-0.488982 -1.62014,-1.206213 -0.6359,-0.714077 -0.89209,-1.588392 z m 1.86599,-3.509226 q -0.88628,1.800747 -0.55886,3.172931 0.32436,1.378394 1.72149,2.066025 1.40955,0.693742 2.69965,0.109943 1.28083,-0.580645 2.16711,-2.381391 0.89545,-1.819375 0.55256,-3.191463 -0.34595,-1.365877 -1.72445,-2.044339 -1.37851,-0.678462 -2.66565,-0.116348 -1.2964,0.565267 -2.19185,2.384642 z" />
        <path
           id="path926"
           style="stroke-width:0.354345"
           d="m 178.56996,47.197176 1.708,0.496311 2.16641,4.896101 1.8542,0.538797 1.14326,-3.934376 1.31589,0.382372 -2.87552,9.895753 -2.77134,-0.805299 q -0.8972,-0.260708 -1.46057,-0.55414 -0.5653,-0.286786 -0.9569,-0.724897 -0.43983,-0.495366 -0.58827,-1.100649 -0.15701,-0.600569 0.0728,-1.391432 0.31092,-1.06999 1.05974,-1.637969 0.74688,-0.561333 1.79682,-0.652631 z m 1.0107,8.005252 q -0.12359,0.425338 -0.0654,0.795404 0.0497,0.374781 0.32958,0.701163 0.22977,0.275772 0.60064,0.462816 0.36893,0.19369 0.90061,0.348184 l 1.54849,0.449963 1.08532,-3.734999 -1.32918,-0.386234 q -0.62472,-0.181531 -1.12083,-0.210378 -0.49804,-0.0222 -0.91059,0.182236 -0.38018,0.192225 -0.62403,0.51055 -0.25242,0.323039 -0.41464,0.881295 z" />
        <path
           id="path928"
           style="stroke-width:0.354345"
           d="m 170.5621,45.801004 6.6843,1.189504 -1.80548,10.145678 -6.68429,-1.189504 0.21341,-1.199221 5.33516,0.949421 0.49472,-2.780011 -5.33517,-0.949421 0.21341,-1.19922 5.33517,0.949421 0.67053,-3.768006 -5.33516,-0.949421 z" />
        <path
           id="path930"
           style="stroke-width:0.354345"
           d="m 159.56613,55.25643 4.46215,-10.017697 1.82263,0.127701 3.02164,10.542047 -1.46362,-0.102548 -2.59044,-9.269974 -3.85778,8.818182 z" />
        <path
           id="path932"
           style="stroke-width:0.354345"
           d="m 151.92956,45.279821 6.78483,-0.246484 0.37413,10.298279 -6.78483,0.246485 -0.0442,-1.217258 5.41542,-0.196735 -0.10251,-2.821826 -5.41542,0.196735 -0.0442,-1.217258 5.41542,-0.196735 -0.13895,-3.82468 -5.41542,0.196735 z" />
        <path
           id="path934"
           style="stroke-width:0.354345"
           d="m 141.71074,46.638151 1.44557,-0.206798 1.40699,2.700095 4.41208,-0.631174 0.59352,-2.98628 1.37706,-0.196996 -2.25393,10.732422 -1.80868,0.258743 z m 3.43709,3.59819 2.50456,4.752318 1.07854,-5.264901 z" />
        <path
           id="path936"
           style="stroke-width:0.354345"
           d="m 133.85852,48.593572 6.33156,-1.55365 2.45582,10.00817 -1.33083,0.326563 -2.16555,-8.825202 -5.00072,1.227086 z" />
        <path
           id="path938"
           style="stroke-width:0.354345"
           d="m 120.32507,53.738545 1.34797,-0.561625 2.03734,2.262607 4.11418,-1.714153 -0.1719,-3.039832 1.28408,-0.535008 0.50076,10.955105 -1.68656,0.702697 z m 4.2275,2.624658 3.61312,3.975269 -0.27195,-5.367353 z" />
        <path
           id="path940"
           style="stroke-width:0.354345"
           d="m 113.85332,63.204488 q -0.68811,-1.224869 -0.71041,-2.522138 -0.0283,-1.29388 0.55018,-2.34125 0.4019,-0.725884 1.06725,-1.321938 0.65932,-0.592664 1.89626,-1.287559 l 2.26872,-1.274539 5.04731,8.984385 -2.24459,1.26098 q -1.31537,0.738962 -2.19618,0.979765 -0.88344,0.250226 -1.60689,0.220051 -1.23917,-0.05797 -2.28762,-0.723194 -1.04846,-0.66522 -1.78403,-1.974563 z m 1.25918,-0.683573 q 0.5932,1.055922 1.36803,1.573209 0.77483,0.517287 1.73882,0.523464 0.70046,0.0034 1.36222,-0.217545 0.66514,-0.214906 1.49781,-0.682689 l 1.1223,-0.63049 -3.89481,-6.932881 -1.12229,0.63049 q -0.86284,0.484732 -1.43124,0.970754 -0.57444,0.489412 -0.91823,1.135027 -0.42909,0.804663 -0.36774,1.691023 0.0553,0.889751 0.64513,1.939638 z" />
        <path
           id="path942"
           style="stroke-width:0.354345"
           d="m 105.52759,69.274985 q -0.83495,-1.129895 -1.01824,-2.414346 -0.18884,-1.280337 0.25507,-2.391462 0.30861,-0.770189 0.89475,-1.444283 0.58059,-0.66998 1.72161,-1.513158 l 2.09281,-1.546511 6.12435,8.287754 -2.07054,1.530059 q -1.21339,0.896648 -2.05745,1.245008 -0.84552,0.358039 -1.56711,0.417973 -1.23677,0.09642 -2.35974,-0.433399 -1.12298,-0.529816 -2.01551,-1.737635 z m 1.1645,-0.834706 q 0.71978,0.974048 1.55288,1.391069 0.83309,0.417022 1.79037,0.303395 0.69546,-0.08365 1.32464,-0.38509 0.6333,-0.295873 1.4014,-0.863476 l 1.03528,-0.765029 -4.72591,-6.395319 -1.03527,0.765029 q -0.79594,0.588168 -1.29956,1.141039 -0.50919,0.556983 -0.77011,1.240307 -0.3258,0.851735 -0.15482,1.723607 0.16542,0.875986 0.8811,1.844468 z" />
        <path
           id="path944"
           style="stroke-width:0.354345"
           d="m 98.132448,69.093492 3.025532,-2.721476 0.70351,0.78211 -1.00336,0.90253 5.4846,6.097371 1.00337,-0.90253 0.70351,0.78211 -3.02553,2.721476 -0.70351,-0.78211 1.00336,-0.902531 -5.484606,-6.097371 -1.003365,0.902531 z" />
        <path
           id="path946"
           style="stroke-width:0.354345"
           d="m 98.008053,82.286707 2.522807,-2.681711 -6.618585,-6.226405 0.93894,-0.99808 6.618585,6.226404 2.52281,-2.681712 0.88718,0.834614 -5.984555,6.361504 z" />
        <path
           id="path948"
           style="stroke-width:0.354345"
           d="m 88.298045,80.038757 2.532717,-3.185218 0.82339,0.654715 -0.839932,1.056323 6.41919,5.104199 0.839932,-1.056322 0.823389,0.654716 -2.532716,3.185218 -0.82339,-0.654716 0.839931,-1.056322 -6.419189,-5.1042 -0.839932,1.056323 z" />
        <path
           id="path950"
           style="stroke-width:0.354345"
           d="m 90.313853,93.294449 q -0.923349,0.151788 -1.946052,-0.11557 -1.026468,-0.261551 -2.094855,-0.954492 -1.068386,-0.692941 -1.727829,-1.533097 -0.657402,-0.830584 -0.885455,-1.712658 -0.239981,-0.914558 -0.0616,-1.838236 0.174619,-0.917871 0.780942,-1.852709 0.59126,-0.911613 1.379007,-1.464814 0.783981,-0.547394 1.697758,-0.697142 0.913777,-0.149748 1.934439,0.108037 1.016896,0.263592 2.091089,0.960299 1.056774,0.685409 1.712136,1.50642 0.661168,0.824777 0.912761,1.746867 0.237626,0.880034 0.04998,1.830704 -0.191408,0.956476 -0.771369,1.850669 -0.602558,0.929032 -1.388579,1.466854 -0.783982,0.547394 -1.68238,0.698868 z m -3.265114,-2.266191 q 1.68387,1.092135 3.085061,0.928556 1.406997,-0.159813 2.254343,-1.466264 0.854878,-1.318064 0.427037,-2.667928 -0.425801,-1.340291 -2.109671,-2.432426 -1.70129,-1.103433 -3.104206,-0.924475 -1.397109,0.182724 -2.233158,1.471755 -0.836048,1.289032 -0.429392,2.633404 0.408696,1.353945 2.109986,2.457378 z" />
        <path
           id="path952"
           style="stroke-width:0.354345"
           d="m 77.484052,98.417759 0.742258,-1.5245 10.427216,-0.357587 -8.2883,-4.035461 0.56048,-1.151153 9.265225,4.511112 -0.930095,1.910292 -9.517575,0.323232 7.566497,3.684026 -0.560481,1.15115 z" />
        <path
           id="path954"
           style="stroke-width:0.354345"
           d="m 73.748685,108.62588 0.48541,-1.37725 3.044688,0.002 1.481534,-4.20355 -2.372936,-1.9077 0.462405,-1.311976 8.472205,6.963246 -0.607337,1.7232 z m 4.780063,-1.38259 5.371861,-0.0219 -4.168689,-3.39182 z" />
        <path
           id="path956"
           style="stroke-width:0.354345"
           d="m 71.854352,116.49312 1.54648,-6.33332 10.010944,2.44449 -0.325057,1.33121 -8.827649,-2.15555 -1.221423,5.00211 z" />
        <path
           id="path958"
           style="stroke-width:0.354345"
           d="m 70.961233,130.77163 q -0.134477,-0.39293 -0.253909,-0.71519 -0.119997,-0.31536 -0.237974,-0.82498 -0.0966,-0.4315 -0.145597,-0.93548 -0.05646,-0.49764 -0.0079,-1.09084 0.09151,-1.11743 0.477036,-2.00941 0.391859,-0.88451 1.116294,-1.5057 0.709511,-0.60851 1.74708,-0.89852 1.044467,-0.28944 2.382623,-0.17985 1.269178,0.10394 2.239973,0.54453 0.970794,0.44059 1.605207,1.17305 0.615414,0.71007 0.891503,1.66318 0.275525,0.96 0.182885,2.09122 -0.06779,0.82773 -0.33504,1.63217 -0.267819,0.81135 -0.853824,1.77717 l -1.620962,-0.13274 0.0085,-0.10347 q 0.779945,-0.79023 1.172487,-1.59831 0.392543,-0.80807 0.470496,-1.75995 0.06383,-0.77945 -0.13998,-1.42804 -0.197478,-0.64113 -0.688495,-1.17436 -0.478352,-0.51831 -1.249558,-0.85228 -0.764874,-0.32651 -1.79953,-0.41124 -1.082941,-0.0887 -1.886107,0.13719 -0.803731,0.23277 -1.331315,0.65481 -0.549972,0.44104 -0.850823,1.06219 -0.294519,0.62861 -0.353266,1.34597 -0.08078,0.98637 0.1866,1.87627 0.267378,0.88989 0.881782,1.6971 l -0.0079,0.0966 z" />
        <path
           id="path960"
           style="stroke-width:0.354345"
           d="m 79.594259,139.99883 q -0.667486,0.6558 -1.657562,1.02614 -0.989811,0.37725 -2.262307,0.42595 -1.272496,0.0487 -2.295428,-0.25843 -1.015753,-0.30049 -1.710137,-0.89032 -0.722842,-0.60951 -1.108897,-1.46739 -0.38579,-0.85097 -0.428407,-1.9644 -0.04156,-1.08577 0.283914,-1.99167 0.325737,-0.89898 0.986572,-1.5476 0.660835,-0.64862 1.643731,-1.02561 0.98316,-0.37007 2.262572,-0.41904 1.258664,-0.0482 2.267236,0.24566 1.015487,0.29358 1.75216,0.90256 0.701036,0.58264 1.095066,1.46793 0.394294,0.89219 0.435057,1.95722 0.04235,1.10651 -0.290565,1.99884 -0.325736,0.89898 -0.973005,1.54016 z m -3.974397,0.0275 q 2.005563,-0.0768 3.056923,-1.01737 1.058276,-0.94086 0.998718,-2.4969 -0.06009,-1.56988 -1.187184,-2.4271 -1.119917,-0.85057 -3.125481,-0.77381 -2.026311,0.0776 -3.070226,1.03173 -1.036999,0.9539 -0.978235,2.4892 0.05876,1.53529 1.165378,2.40022 1.113796,0.87159 3.140107,0.79403 z" />
        <path
           id="path962"
           style="stroke-width:0.354345"
           d="m 72.066013,151.57413 -0.272633,-1.67354 8.312937,-6.30474 -9.098564,1.48223 -0.205865,-1.26369 10.170992,-1.65694 0.341625,2.09705 -7.589562,5.75215 8.306197,-1.35315 0.205865,1.26369 z" />
        <path
           id="path964"
           style="stroke-width:0.354345"
           d="m 83.422271,158.90953 -0.980753,-3.54884 -8.758696,2.42055 -0.365017,-1.32081 8.758696,-2.42054 -0.980754,-3.54884 1.174052,-0.32446 2.326525,8.41848 z" />
        <path
           id="path966"
           style="stroke-width:0.354345"
           d="m 77.60891,168.97656 -2.447189,-6.33292 9.61236,-3.71444 2.447189,6.33293 -1.136182,0.43904 -1.953261,-5.05472 -2.633877,1.01779 1.953261,5.05472 -1.136182,0.43905 -1.953261,-5.05472 -3.569937,1.37951 1.953262,5.05472 z" />
        <path
           id="path968"
           style="stroke-width:0.354345"
           d="m 82.124171,177.95006 -0.782431,-1.50428 5.923677,-8.58864 -8.178354,4.25387 -0.590815,-1.13588 9.142319,-4.75526 0.980434,1.88495 -5.409451,7.83751 7.466125,-3.88341 0.590815,1.13588 z" />
        <path
           id="path970"
           style="stroke-width:0.354345"
           d="m 95.208449,181.34008 -2.047878,-3.05979 -7.551707,5.05425 -0.762181,-1.13879 7.551708,-5.05426 -2.047879,-3.05979 1.012263,-0.67749 4.857936,7.25838 z" />
      </g>
    </g>
    <g
       transform="rotate(105,113.99166,76.410443)"
       style="font-size:14.1738px;line-height:1.25;font-family:sans-serif;stroke-width:0.354345"
       id="g1115"
       aria-label="SCROLL TO REVEAL ADDITIONAL CONTENT"
       inkscape:transform-center-x="-37.275249"
       inkscape:transform-center-y="0.29891661">
      <path
         id="path1053"
         style="stroke-width:0.182141"
         d="m 271.8272,71.798445 q 0.29419,-0.09612 0.62692,-0.0514 0.33162,0.04133 0.61179,0.223019 0.3048,0.199815 0.54475,0.521865 0.23885,0.318667 0.40457,0.825898 0.17788,0.544426 0.21896,1.013783 0.04,0.465981 -0.0126,0.980912 l -0.83862,0.273994 -0.0155,-0.04734 q 0.19302,-0.485965 0.20197,-1.042779 0.009,-0.556808 -0.13469,-0.996409 -0.20329,-0.622202 -0.5493,-0.890881 -0.34712,-0.272066 -0.736,-0.14501 -0.33477,0.109378 -0.43957,0.326999 -0.1059,0.214239 -0.0844,0.577734 0.0152,0.275716 0.0685,0.58765 0.0522,0.308556 0.0928,0.662044 0.0767,0.715944 -0.15874,1.152157 -0.23995,0.433937 -0.79114,0.614024 -0.63235,0.206601 -1.20932,-0.196202 -0.58034,-0.401702 -0.84882,-1.223416 -0.17345,-0.530897 -0.21674,-1.007024 -0.0433,-0.476122 -0.006,-0.86627 l 0.79127,-0.258532 0.0155,0.04734 q -0.14956,0.36698 -0.15492,0.888938 -0.01,0.51968 0.15036,1.010005 0.17567,0.537661 0.50601,0.792749 0.32925,0.251711 0.68093,0.136807 0.31448,-0.102748 0.44067,-0.323618 0.12619,-0.22087 0.0872,-0.660969 -0.0234,-0.231886 -0.0861,-0.653002 -0.0627,-0.421117 -0.0823,-0.721604 -0.0346,-0.609942 0.17354,-0.992323 0.20815,-0.382375 0.7492,-0.559147 z" />
      <path
         id="path1055"
         style="stroke-width:0.182141"
         d="m 270.8007,66.709642 q 0.15862,0.142856 0.29283,0.257735 0.13274,0.11164 0.31313,0.311034 0.15126,0.169648 0.29925,0.383753 0.14978,0.209392 0.27626,0.487965 0.23825,0.524749 0.28809,1.021741 0.0451,0.495228 -0.12494,0.955328 -0.16654,0.450679 -0.56004,0.840322 -0.39674,0.391108 -1.02515,0.676426 -0.59601,0.270612 -1.14217,0.315424 -0.54616,0.04482 -1.01421,-0.125555 -0.45392,-0.165067 -0.81619,-0.524111 -0.36374,-0.362287 -0.60494,-0.893513 -0.17649,-0.388708 -0.25756,-0.81682 -0.0825,-0.431351 -0.0608,-1.01164 l 0.76121,-0.345612 0.0221,0.04857 q -0.15274,0.5499 -0.12703,1.010967 0.0257,0.461067 0.22867,0.90808 0.16619,0.366029 0.41987,0.60638 0.24898,0.238583 0.60282,0.355323 0.34442,0.113197 0.77428,0.0704 0.42516,-0.04457 0.91104,-0.265179 0.50855,-0.230898 0.81281,-0.533132 0.30279,-0.305483 0.43423,-0.626926 0.13675,-0.335579 0.11659,-0.68977 -0.0249,-0.35596 -0.17783,-0.692834 -0.21031,-0.463205 -0.55287,-0.796038 -0.34256,-0.332834 -0.82031,-0.541779 l -0.0206,-0.04534 z" />
      <path
         id="path1057"
         style="stroke-width:0.182141"
         d="m 268.41412,61.907538 0.46894,0.784839 -0.89918,2.601018 0.50908,0.852021 1.80788,-1.08021 0.36128,0.604658 -4.54716,2.716946 -0.76089,-1.273451 q -0.24633,-0.412265 -0.35558,-0.719953 -0.11231,-0.305869 -0.10626,-0.607851 0.008,-0.340421 0.16404,-0.620172 0.1512,-0.280974 0.51461,-0.498112 0.49167,-0.293773 0.97234,-0.245301 0.47761,0.05027 0.90467,0.383583 z m -2.42278,3.366335 q -0.19544,0.116775 -0.30312,0.276425 -0.11254,0.158416 -0.12149,0.379255 -0.0101,0.18423 0.064,0.384477 0.071,0.202078 0.21699,0.446382 l 0.42515,0.711544 1.71625,-1.025467 -0.36493,-0.610771 q -0.17152,-0.28706 -0.34811,-0.471635 -0.17965,-0.182744 -0.40647,-0.250276 -0.21038,-0.06078 -0.4136,-0.02637 -0.20811,0.03316 -0.46463,0.186451 z" />
      <path
         id="path1059"
         style="stroke-width:0.182141"
         d="m 261.88159,61.096932 q 0.0834,-0.473711 0.38699,-0.924333 0.30143,-0.453439 0.81925,-0.853846 0.51781,-0.400412 1.03749,-0.57742 0.51469,-0.177646 0.98135,-0.138267 0.48443,0.03912 0.90215,0.282722 0.41555,0.240788 0.76591,0.693877 0.34165,0.441832 0.47604,0.918021 0.13221,0.473378 0.0495,0.942098 -0.0828,0.468715 -0.38137,0.919975 -0.30079,0.448447 -0.82141,0.851034 -0.51219,0.396063 -1.02189,0.574346 -0.51252,0.180458 -1.00259,0.145694 -0.46729,-0.03439 -0.89653,-0.287075 -0.43141,-0.2555 -0.76654,-0.688886 -0.34818,-0.450273 -0.4754,-0.923013 -0.13221,-0.473377 -0.0529,-0.934927 z m 1.65452,-1.198456 q -0.81612,0.631085 -0.97505,1.338583 -0.16174,0.709679 0.32789,1.342875 0.49399,0.638826 1.22153,0.660841 0.72255,0.02138 1.53867,-0.609706 0.82456,-0.637612 0.97633,-1.348565 0.14895,-0.708779 -0.33416,-1.33353 -0.4831,-0.624757 -1.20438,-0.656112 -0.72626,-0.03202 -1.55083,0.605614 z" />
      <path
         id="path1061"
         style="stroke-width:0.182141"
         d="m 262.07834,54.478258 2.32405,2.414259 -3.81617,3.673596 -0.48849,-0.507457 3.3651,-3.239377 -1.83557,-1.906802 z" />
      <path
         id="path1063"
         style="stroke-width:0.182141"
         d="m 259.01419,51.817453 2.52989,2.19763 -3.47374,3.998946 -0.53176,-0.46192 3.06314,-3.526272 -1.99813,-1.735706 z" />
      <path
         id="path1065"
         style="stroke-width:0.182141"
         d="m 250.67228,51.805425 1.59605,1.017057 2.51015,-3.939108 0.59401,0.378531 -2.51015,3.939108 1.59605,1.017062 -0.33647,0.528013 -3.78611,-2.412645 z" />
      <path
         id="path1067"
         style="stroke-width:0.182141"
         d="m 247.08327,50.066877 q -0.13336,-0.462131 -0.0588,-1.000347 0.0714,-0.539789 0.36044,-1.127078 0.28905,-0.58729 0.67799,-0.974749 0.38418,-0.385834 0.82063,-0.555626 0.45231,-0.177846 0.93459,-0.142692 0.47909,0.03357 0.99298,0.2865 0.5011,0.246632 0.83116,0.615252 0.32686,0.367052 0.4586,0.824423 0.13175,0.457371 0.0619,0.993968 -0.073,0.535019 -0.36363,1.125506 -0.2859,0.580905 -0.66532,0.965121 -0.38099,0.387407 -0.83644,0.571637 -0.43483,0.174557 -0.93145,0.136308 -0.49981,-0.03984 -0.99135,-0.281734 -0.51069,-0.251352 -0.83279,-0.620023 -0.32686,-0.367047 -0.45855,-0.816466 z m 0.95916,-1.803813 q -0.45557,0.925618 -0.28727,1.630953 0.16673,0.708521 0.88489,1.061978 0.72453,0.356597 1.38767,0.05651 0.65838,-0.298461 1.11394,-1.224085 0.46028,-0.935194 0.28403,-1.640477 -0.17783,-0.702091 -0.8864,-1.050834 -0.70859,-0.348743 -1.3702,-0.05981 -0.66638,0.290561 -1.12666,1.225761 z" />
      <path
         id="path1069"
         style="stroke-width:0.182141"
         d="m 240.88993,43.060373 0.87795,0.255114 1.11358,2.516699 0.95309,0.276955 0.58766,-2.02235 0.6764,0.196547 -1.47808,5.086624 -1.42453,-0.413941 q -0.46118,-0.134011 -0.75076,-0.28484 -0.29058,-0.147411 -0.49187,-0.372614 -0.22608,-0.254625 -0.30238,-0.565752 -0.0807,-0.308706 0.0374,-0.715229 0.15982,-0.549998 0.54473,-0.841952 0.38391,-0.288535 0.9236,-0.335465 z m 0.51952,4.114868 q -0.0635,0.218634 -0.0336,0.408857 0.0255,0.192645 0.16941,0.360412 0.11811,0.141751 0.30874,0.237899 0.18964,0.09956 0.46294,0.178972 l 0.79595,0.231289 0.55788,-1.919864 -0.68323,-0.198536 q -0.32111,-0.09331 -0.57613,-0.108139 -0.256,-0.01141 -0.46806,0.09367 -0.19542,0.0988 -0.32076,0.262433 -0.12975,0.16605 -0.21314,0.453002 z" />
      <path
         id="path1071"
         style="stroke-width:0.182141"
         d="m 236.77372,42.342713 3.43587,0.611428 -0.92805,5.215093 -3.43587,-0.611428 0.1097,-0.616424 2.74238,0.488022 0.2543,-1.428984 -2.74239,-0.488022 0.1097,-0.616424 2.74239,0.488022 0.34466,-1.936837 -2.74238,-0.488022 z" />
      <path
         id="path1073"
         style="stroke-width:0.182141"
         d="m 231.12156,47.203003 2.29364,-5.149309 0.93687,0.06564 1.55318,5.418837 -0.75233,-0.05271 -1.33154,-4.76496 -1.98298,4.53273 z" />
      <path
         id="path1075"
         style="stroke-width:0.182141"
         d="m 227.1962,42.074815 3.48755,-0.126701 0.19231,5.293533 -3.48755,0.126701 -0.0227,-0.625697 2.78364,-0.101128 -0.0527,-1.450475 -2.78364,0.101123 -0.0227,-0.625692 2.78364,-0.101129 -0.0714,-1.965966 -2.78364,0.101128 z" />
      <path
         id="path1077"
         style="stroke-width:0.182141"
         d="m 221.94351,42.773025 0.74305,-0.106299 0.72323,1.387903 2.2679,-0.324435 0.30508,-1.535011 0.70784,-0.101262 -1.15857,5.516696 -0.9297,0.132998 z m 1.76674,1.849546 1.28739,2.442793 0.5544,-2.706275 z" />
      <path
         id="path1079"
         style="stroke-width:0.182141"
         d="m 217.9073,43.778153 3.25456,-0.798609 1.26234,5.14441 -0.68407,0.167859 -1.11314,-4.536339 -2.57048,0.63075 z" />
      <path
         id="path1081"
         style="stroke-width:0.182141"
         d="m 210.95083,46.422776 0.69288,-0.288685 1.04724,1.163024 2.11477,-0.881109 -0.0884,-1.562537 0.66005,-0.275006 0.2574,5.631158 -0.86693,0.361197 z m 2.17302,1.34913 1.85722,2.043373 -0.13979,-2.758931 z" />
      <path
         id="path1083"
         style="stroke-width:0.182141"
         d="m 207.62421,51.288469 q -0.3537,-0.629604 -0.36517,-1.296428 -0.0145,-0.665082 0.28281,-1.203452 0.20658,-0.373123 0.54859,-0.679505 0.3389,-0.304645 0.97471,-0.661833 l 1.16617,-0.655141 2.59443,4.618166 -1.15377,0.648171 q -0.67613,0.379841 -1.12888,0.503617 -0.45411,0.128623 -0.82598,0.11311 -0.63696,-0.02981 -1.17588,-0.371735 -0.53893,-0.341937 -0.91703,-1.01497 z m 0.64724,-0.35137 q 0.30492,0.542765 0.7032,0.808663 0.39828,0.265898 0.89379,0.26907 0.36005,0.0015 0.70021,-0.11182 0.3419,-0.110468 0.76991,-0.350917 l 0.57688,-0.324085 -2.00201,-3.563647 -0.57688,0.324085 q -0.44352,0.249162 -0.73569,0.498986 -0.29527,0.251572 -0.47199,0.583429 -0.22056,0.413613 -0.18903,0.86922 0.0284,0.457351 0.33161,0.997016 z" />
      <path
         id="path1085"
         style="stroke-width:0.182141"
         d="m 203.34461,54.408834 q -0.42918,-0.580787 -0.5234,-1.241022 -0.0971,-0.658122 0.13111,-1.229266 0.15863,-0.395894 0.45992,-0.74239 0.29844,-0.344384 0.88495,-0.777797 l 1.07575,-0.794938 3.14804,4.260083 -1.0643,0.786478 q -0.62371,0.460897 -1.05757,0.639962 -0.43462,0.18404 -0.80553,0.21485 -0.63573,0.04955 -1.21296,-0.222777 -0.57723,-0.272338 -1.03601,-0.893183 z m 0.59858,-0.429054 q 0.36998,0.500678 0.79821,0.715035 0.42822,0.214362 0.92029,0.155954 0.35748,-0.04302 0.68089,-0.197945 0.32553,-0.152083 0.72035,-0.443847 l 0.53215,-0.393241 -2.42921,-3.287325 -0.53215,0.393237 q -0.40913,0.302332 -0.668,0.586518 -0.26174,0.286305 -0.39586,0.637546 -0.16747,0.437812 -0.0796,0.885972 0.085,0.450272 0.45291,0.948096 z" />
      <path
         id="path1087"
         style="stroke-width:0.182141"
         d="m 199.54335,54.315544 1.55519,-1.398898 0.36162,0.402021 -0.51575,0.46392 2.8192,3.134176 0.51575,-0.463919 0.36162,0.402021 -1.55519,1.398898 -0.36162,-0.402021 0.51575,-0.463919 -2.8192,-3.134177 -0.51575,0.463919 z" />
      <path
         id="path1089"
         style="stroke-width:0.182141"
         d="m 199.47941,61.097133 1.29677,-1.378456 -3.40209,-3.200501 0.48264,-0.513034 3.40209,3.200501 1.29678,-1.378456 0.45603,0.429007 -3.07619,3.269951 z" />
      <path
         id="path1091"
         style="stroke-width:0.182141"
         d="m 194.48826,59.941639 1.30187,-1.637265 0.42324,0.336534 -0.43174,0.542971 3.29959,2.623667 0.43175,-0.542971 0.42324,0.33654 -1.30187,1.637265 -0.42324,-0.336535 0.43174,-0.542971 -3.2996,-2.623666 -0.43174,0.542971 z" />
      <path
         id="path1093"
         style="stroke-width:0.182141"
         d="m 195.52442,66.755348 q -0.47462,0.07802 -1.00031,-0.0594 -0.52762,-0.134447 -1.07679,-0.490633 -0.54918,-0.356186 -0.88814,-0.788041 -0.33792,-0.426941 -0.45515,-0.880343 -0.12335,-0.470103 -0.0317,-0.944894 0.0898,-0.471805 0.40142,-0.952332 0.30392,-0.468587 0.70884,-0.752944 0.40298,-0.28137 0.87268,-0.358344 0.4697,-0.07698 0.99434,0.05553 0.52271,0.135496 1.07487,0.493615 0.5432,0.352315 0.88007,0.774332 0.33985,0.423954 0.46918,0.897928 0.12214,0.452354 0.0257,0.941018 -0.0984,0.491651 -0.3965,0.951283 -0.30973,0.477547 -0.71376,0.753997 -0.40298,0.281371 -0.86478,0.359234 z m -1.67833,-1.164874 q 0.86554,0.561383 1.58578,0.477299 0.72323,-0.08214 1.15878,-0.753688 0.43943,-0.677516 0.21951,-1.371373 -0.21887,-0.688937 -1.08441,-1.25032 -0.8745,-0.567186 -1.59563,-0.475197 -0.71815,0.09392 -1.14789,0.75651 -0.42975,0.662589 -0.22072,1.353629 0.21008,0.695953 1.08458,1.26314 z" />
      <path
         id="path1095"
         style="stroke-width:0.182141"
         d="m 188.92964,69.388838 0.38153,-0.783625 5.35981,-0.183809 -4.26036,-2.074312 0.2881,-0.59172 4.76252,2.318811 -0.47808,0.981929 -4.89224,0.166147 3.88934,1.893669 -0.2881,0.591716 z" />
      <path
         id="path1097"
         style="stroke-width:0.182141"
         d="m 187.00958,74.636027 0.24951,-0.707936 1.56503,0.001 0.76155,-2.160714 -1.21975,-0.980598 0.23769,-0.674385 4.35489,3.579257 -0.31218,0.885761 z m 2.45705,-0.71068 2.76125,-0.01126 -2.14279,-1.743468 z" />
      <path
         id="path1099"
         style="stroke-width:0.182141"
         d="m 186.03585,78.679954 0.79493,-3.25546 5.14583,1.25652 -0.16708,0.68427 -4.5376,-1.107998 -0.62784,2.57119 z" />
      <path
         id="path1101"
         style="stroke-width:0.182141"
         d="m 185.57677,86.01941 q -0.0691,-0.201974 -0.13052,-0.367623 -0.0617,-0.162101 -0.12232,-0.424057 -0.0496,-0.2218 -0.0748,-0.480856 -0.029,-0.255798 -0.004,-0.560715 0.047,-0.574383 0.24521,-1.032879 0.20142,-0.454657 0.57379,-0.773962 0.36471,-0.312787 0.89804,-0.461858 0.53688,-0.148778 1.22472,-0.09245 0.65238,0.05343 1.15139,0.2799 0.49901,0.226473 0.82512,0.602973 0.31633,0.364991 0.45825,0.854909 0.14162,0.49346 0.094,1.074931 -0.0348,0.425471 -0.17222,0.83897 -0.13766,0.417051 -0.43888,0.913503 l -0.83321,-0.06823 0.004,-0.05319 q 0.4009,-0.406195 0.60268,-0.821565 0.20177,-0.415365 0.24184,-0.904651 0.0328,-0.400654 -0.072,-0.734043 -0.10151,-0.329554 -0.3539,-0.603646 -0.24589,-0.266422 -0.6423,-0.43809 -0.39316,-0.167833 -0.925,-0.211386 -0.55665,-0.04559 -0.9695,0.07052 -0.41313,0.119648 -0.68432,0.336586 -0.2827,0.226704 -0.43734,0.545988 -0.15139,0.323119 -0.18159,0.691857 -0.0415,0.507015 0.0959,0.964442 0.13744,0.457423 0.45325,0.872346 l -0.004,0.04965 z" />
      <path
         id="path1103"
         style="stroke-width:0.182141"
         d="m 190.01433,90.762387 q -0.3431,0.337095 -0.85202,0.527457 -0.50879,0.193915 -1.16288,0.218948 -0.65409,0.02503 -1.1799,-0.132839 -0.52211,-0.154458 -0.87904,-0.457643 -0.37156,-0.313301 -0.57,-0.75427 -0.1983,-0.437416 -0.22021,-1.009743 -0.0214,-0.558108 0.14594,-1.02376 0.16743,-0.462095 0.50712,-0.795499 0.33968,-0.333405 0.84491,-0.527185 0.50537,-0.190225 1.16301,-0.215397 0.64698,-0.02478 1.16541,0.126275 0.52198,0.150907 0.90065,0.463936 0.36034,0.299489 0.56288,0.754547 0.20268,0.458604 0.22363,1.006052 0.0217,0.568769 -0.14936,1.027446 -0.16743,0.462095 -0.50014,0.791675 z m -2.04293,0.01413 q 1.03091,-0.03948 1.57133,-0.522949 0.54397,-0.483622 0.51336,-1.28346 -0.0309,-0.806951 -0.61024,-1.24758 -0.57566,-0.437211 -1.60656,-0.397755 -1.04157,0.03989 -1.57816,0.530331 -0.53304,0.490325 -0.50283,1.279501 0.0302,0.789172 0.59903,1.233764 0.57251,0.448016 1.61407,0.408148 z" />
      <path
         id="path1105"
         style="stroke-width:0.182141"
         d="m 186.14465,96.712335 -0.14014,-0.860235 4.27303,-3.240769 -4.67686,0.761897 -0.10581,-0.649563 5.2281,-0.851702 0.1756,1.077928 -3.9012,2.956726 4.26957,-0.695547 0.10582,0.649563 z" />
      <path
         id="path1107"
         style="stroke-width:0.182141"
         d="m 191.98201,100.48289 -0.50413,-1.824183 -4.50216,1.244214 -0.18762,-0.678925 4.50215,-1.244208 -0.50412,-1.824179 0.60348,-0.166779 1.19588,4.32728 z" />
      <path
         id="path1109"
         style="stroke-width:0.182141"
         d="m 188.99382,105.65755 -1.25791,-3.25525 4.94096,-1.9093 1.2579,3.25526 -0.58402,0.22567 -1.00401,-2.59823 -1.35387,0.52316 1.00401,2.59824 -0.58402,0.22568 -1.00401,-2.59823 -1.83503,0.70909 1.00402,2.59824 z" />
      <path
         id="path1111"
         style="stroke-width:0.182141"
         d="m 191.31476,110.27012 -0.40219,-0.77323 3.0449,-4.41474 -4.20385,2.18657 -0.30369,-0.58386 4.69934,-2.44431 0.50397,0.96891 -2.78058,4.02864 3.83775,-1.99615 0.30369,0.58387 z" />
      <path
         id="path1113"
         style="stroke-width:0.182141"
         d="m 198.04035,112.01266 -1.05265,-1.57279 -3.88174,2.59799 -0.39178,-0.58537 3.88174,-2.59799 -1.05265,-1.5728 0.52033,-0.34824 2.49708,3.73096 z" />
      <circle
         style="fill:#333333;stroke:none;stroke-width:18.3031;stroke-linecap:round;stroke-miterlimit:4;stroke-dasharray:none;paint-order:stroke fill markers"
         id="path1193"
         cx="44.764893"
         cy="106.06358"
         r="42.622101"
         transform="matrix(0.25881905,0.96592583,0.96592583,-0.25881905,0,0)" />
      <text
         xml:space="preserve"
         style="font-size:10.5833px;line-height:1.25;font-family:sans-serif;stroke-width:0.0937538;fill:#ffffff;"
         id="text1263"><textPath
           xlink:href="#path1193"
           id="textPath1265"><tspan
             style="stroke-width:0.0937538;fill:#ffffff;"
             id="tspan1261">SCROLL</tspan></textPath></text>
    </g>
  </g>
</svg>
