<?xml version="1.0" encoding="UTF-8" standalone="no"?>
<svg
   xmlns:dc="http://purl.org/dc/elements/1.1/"
   xmlns:cc="http://creativecommons.org/ns#"
   xmlns:rdf="http://www.w3.org/1999/02/22-rdf-syntax-ns#"
   xmlns:svg="http://www.w3.org/2000/svg"
   xmlns="http://www.w3.org/2000/svg"
   xmlns:sodipodi="http://sodipodi.sourceforge.net/DTD/sodipodi-0.dtd"
   xmlns:inkscape="http://www.inkscape.org/namespaces/inkscape"
   inkscape:version="1.0 (4035a4fb49, 2020-05-01)"
   id="svg8"
   version="1.1"
   viewBox="0 0 316.10491 316.10491"
   height="316.10492mm"
   width="316.10492mm"
   sodipodi:docname="scroll_to_reveal_additional_content.svg">
  <defs
     id="defs2" />
  <sodipodi:namedview
     showborder="false"
     inkscape:showpageshadow="false"
     fit-margin-bottom="0"
     fit-margin-right="0"
     fit-margin-left="0"
     fit-margin-top="0"
     showgrid="false"
     inkscape:document-rotation="0"
     inkscape:current-layer="layer2"
     inkscape:document-units="mm"
     inkscape:cy="949.16209"
     inkscape:cx="522.44059"
     inkscape:zoom="0.49497475"
     inkscape:pageshadow="2"
     inkscape:pageopacity="0"
     borderopacity="1.0"
     bordercolor="#666666"
     pagecolor="#383838"
     id="base" />
  <metadata
     id="metadata5">
    <rdf:RDF>
      <cc:Work
         rdf:about="">
        <dc:format>image/svg+xml</dc:format>
        <dc:type
           rdf:resource="http://purl.org/dc/dcmitype/StillImage" />
        <dc:title />
      </cc:Work>
    </rdf:RDF>
  </metadata>
  <g
     style="display:inline"
     transform="translate(58.964287,13.09859)"
     id="layer1"
     inkscape:groupmode="layer"
     inkscape:label="Canvas" />
  <g
     style="opacity:0.997"
     inkscape:label="Layer 1"
     id="layer2"
     inkscape:groupmode="layer"
     transform="translate(-1.9580078e-7,12.342637)">
    <g
       inkscape:export-ydpi="672.27136"
       inkscape:export-xdpi="672.27136"
       style="font-style:normal;font-variant:normal;font-weight:bold;font-stretch:normal;font-size:11.675px;line-height:1.25;font-family:Montserrat;-inkscape-font-specification:'Montserrat, Bold';font-variant-ligatures:normal;font-variant-caps:normal;font-variant-numeric:normal;font-variant-east-asian:normal;stroke-width:0.291876"
       id="text869"
       aria-label="SCROLL ● SCROLL ● SCROLL ● SCROLL ● SCROLL ● SCROLL ●">
      <path
         id="path973"
         style="font-style:normal;font-variant:normal;font-weight:bold;font-stretch:normal;font-size:11.675px;font-family:Montserrat;-inkscape-font-specification:'Montserrat, Bold';font-variant-ligatures:normal;font-variant-caps:normal;font-variant-numeric:normal;font-variant-east-asian:normal;stroke-width:0.291876"
         d="m 125.6234,300.89523 c -2.33124,-0.1325 -3.52813,0.96886 -3.60564,2.33264 -0.17026,2.99564 4.63277,2.22787 4.54731,3.73151 -0.0292,0.51288 -0.48428,0.90799 -1.60328,0.84439 -0.72268,-0.0411 -1.49172,-0.29527 -2.22486,-0.76961 l -0.66429,1.40058 c 0.73049,0.52097 1.76563,0.82537 2.79138,0.88367 2.31958,0.13184 3.50416,-0.95853 3.58299,-2.34561 0.17225,-3.03061 -4.63144,-2.25119 -4.54466,-3.77815 0.0285,-0.50121 0.50428,-0.84838 1.62327,-0.78478 0.97912,0.0557 1.98499,0.46364 2.64422,1.00394 l 0.72192,-1.38562 c -0.69089,-0.60057 -1.97452,-1.05942 -3.26836,-1.13296 z" />
      <path
         id="path975"
         style="font-style:normal;font-variant:normal;font-weight:bold;font-stretch:normal;font-size:11.675px;font-family:Montserrat;-inkscape-font-specification:'Montserrat, Bold';font-variant-ligatures:normal;font-variant-caps:normal;font-variant-numeric:normal;font-variant-east-asian:normal;stroke-width:0.291876"
         d="m 117.02904,299.84137 c -1.40131,-0.25513 -2.65343,0.039 -3.58091,0.83139 l 0.9938,1.32017 c 0.65487,-0.53345 1.39111,-0.73168 2.19514,-0.58529 1.50469,0.27396 2.38051,1.52518 2.10446,3.04135 -0.27605,1.51618 -1.53667,2.37842 -3.04135,2.10446 -0.80404,-0.14639 -1.42317,-0.59139 -1.85009,-1.30993 l -1.39532,0.88517 c 0.59078,1.05692 1.65887,1.77353 3.0487,2.02658 2.50398,0.4559 4.68053,-0.93972 5.12179,-3.36331 0.44126,-2.42358 -1.10372,-4.49678 -3.59622,-4.95059 z" />
      <path
         id="path977"
         style="font-style:normal;font-variant:normal;font-weight:bold;font-stretch:normal;font-size:11.675px;font-family:Montserrat;-inkscape-font-specification:'Montserrat, Bold';font-variant-ligatures:normal;font-variant-caps:normal;font-variant-numeric:normal;font-variant-east-asian:normal;stroke-width:0.291876"
         d="m 105.57171,296.79107 0.93444,3.06384 c -1.15103,0.10583 -2.01669,0.77042 -2.39439,1.93666 -0.56476,1.7438 0.38584,3.24205 2.46285,3.91473 l 3.36543,1.08994 2.51802,-7.77492 -1.79934,-0.58274 -0.70145,2.16587 -1.56609,-0.5072 -0.0889,-0.0288 -0.798,-2.65149 z m 0.3616,5.59044 c 0.27339,-0.84414 0.99421,-1.1752 2.0938,-0.81908 l 1.46613,0.47482 -0.87771,2.71012 -1.46613,-0.47483 c -1.09959,-0.35612 -1.49307,-1.03579 -1.21609,-1.89103 z" />
      <path
         id="path979"
         style="font-style:normal;font-variant:normal;font-weight:bold;font-stretch:normal;font-size:11.675px;font-family:Montserrat;-inkscape-font-specification:'Montserrat, Bold';font-variant-ligatures:normal;font-variant-caps:normal;font-variant-numeric:normal;font-variant-east-asian:normal;stroke-width:0.291876"
         d="m 100.83077,294.417 c -2.305624,-1.13193 -4.801093,-0.36714 -5.876431,1.82321 -1.075339,2.19034 -0.154289,4.63246 2.151338,5.7644 2.316107,1.13708 4.806243,0.35666 5.876433,-1.82321 1.0702,-2.17986 0.16477,-4.62732 -2.15134,-5.7644 z m -0.71003,1.44626 c 1.31002,0.64314 1.82694,2.08048 1.14263,3.47433 -0.6843,1.39386 -2.137646,1.86391 -3.447661,1.22076 -1.310015,-0.64314 -1.826937,-2.08048 -1.14263,-3.47434 0.684306,-1.39385 2.137647,-1.8639 3.447661,-1.22075 z" />
      <path
         id="path981"
         style="font-style:normal;font-variant:normal;font-weight:bold;font-stretch:normal;font-size:11.675px;font-family:Montserrat;-inkscape-font-specification:'Montserrat, Bold';font-variant-ligatures:normal;font-variant-caps:normal;font-variant-numeric:normal;font-variant-east-asian:normal;stroke-width:0.291876"
         d="m 95.577835,291.74997 -4.986568,-3.31746 -0.853616,1.28309 3.411862,2.26984 -3.673136,5.52119 1.574706,1.04762 z" />
      <path
         id="path983"
         style="font-style:normal;font-variant:normal;font-weight:bold;font-stretch:normal;font-size:11.675px;font-family:Montserrat;-inkscape-font-specification:'Montserrat, Bold';font-variant-ligatures:normal;font-variant-caps:normal;font-variant-numeric:normal;font-variant-east-asian:normal;stroke-width:0.291876"
         d="m 89.76891,287.7586 -4.598218,-3.83768 -0.987474,1.18317 3.146149,2.62578 -4.249131,5.09121 1.452069,1.2119 z" />
      <path
         id="path985"
         style="font-style:normal;font-variant:normal;font-weight:bold;font-stretch:normal;font-size:11.675px;font-family:Montserrat;-inkscape-font-specification:'Montserrat, Bold';font-variant-ligatures:normal;font-variant-caps:normal;font-variant-numeric:normal;font-variant-east-asian:normal;stroke-width:0.291876"
         d="m 79.593929,282.93831 q -0.786813,0.68501 -1.82433,0.61325 -1.037517,-0.0718 -1.722531,-0.85857 -0.681271,-0.78252 -0.609511,-1.82003 0.07176,-1.03752 0.858573,-1.72253 0.782513,-0.68127 1.82003,-0.60951 1.037518,0.0718 1.718788,0.85427 0.685014,0.78681 0.613254,1.82433 -0.07176,1.03752 -0.854273,1.71879 z" />
      <path
         id="path987"
         style="font-style:normal;font-variant:normal;font-weight:bold;font-stretch:normal;font-size:11.675px;font-family:Montserrat;-inkscape-font-specification:'Montserrat, Bold';font-variant-ligatures:normal;font-variant-caps:normal;font-variant-numeric:normal;font-variant-east-asian:normal;stroke-width:0.291876"
         d="m 73.964076,269.80395 c -1.206976,-1.99886 -2.791789,-2.36482 -3.961121,-1.65874 -2.568532,1.55097 0.777157,5.08154 -0.512107,5.86004 -0.439749,0.26553 -1.022834,0.113 -1.602182,-0.84645 -0.374163,-0.61965 -0.598603,-1.39789 -0.621081,-2.27081 l -1.531042,0.24257 c -0.0175,0.89706 0.315761,1.92328 0.84683,2.80278 1.200942,1.98886 2.769725,2.35086 3.959045,1.63271 2.598516,-1.56907 -0.757167,-5.09361 0.552085,-5.88418 0.429754,-0.2595 0.984932,-0.0628 1.564281,0.89662 0.50693,0.83952 0.738171,1.90006 0.664474,2.74922 l 1.551222,-0.18657 c 0.105563,-0.90932 -0.240532,-2.22783 -0.910404,-3.33719 z" />
      <path
         id="path989"
         style="font-style:normal;font-variant:normal;font-weight:bold;font-stretch:normal;font-size:11.675px;font-family:Montserrat;-inkscape-font-specification:'Montserrat, Bold';font-variant-ligatures:normal;font-variant-caps:normal;font-variant-numeric:normal;font-variant-east-asian:normal;stroke-width:0.291876"
         d="m 69.98478,262.11387 c -0.579809,-1.301 -1.529026,-2.16894 -2.70647,-2.48781 l -0.529473,1.56529 c 0.809884,0.23982 1.388873,0.73592 1.721549,1.48239 0.622581,1.39698 0.08349,2.82595 -1.324151,3.45329 -1.407637,0.62733 -2.830703,0.0728 -3.453283,-1.32415 -0.332677,-0.74648 -0.314487,-1.50872 0.038,-2.26656 l -1.517999,-0.65281 c -0.539446,1.08402 -0.528653,2.37019 0.0464,3.66053 1.036051,2.32473 3.416212,3.33465 5.666298,2.33187 2.250087,-1.00278 3.090429,-3.44797 2.059131,-5.76204 z" />
      <path
         id="path991"
         style="font-style:normal;font-variant:normal;font-weight:bold;font-stretch:normal;font-size:11.675px;font-family:Montserrat;-inkscape-font-specification:'Montserrat, Bold';font-variant-ligatures:normal;font-variant-caps:normal;font-variant-numeric:normal;font-variant-east-asian:normal;stroke-width:0.291876"
         d="m 66.041114,250.93241 -2.002893,2.49974 c -0.736616,-0.89076 -1.773665,-1.23072 -2.949722,-0.8848 -1.758485,0.51723 -2.459487,2.14725 -1.843423,4.24176 l 0.99822,3.39376 7.840381,-2.30612 -0.533702,-1.81449 -2.184106,0.64242 -0.464518,-1.57927 -0.02636,-0.0896 1.739354,-2.15449 z m -4.412324,3.45183 c 0.851241,-0.25038 1.531189,0.1581 1.85734,1.26696 l 0.434869,1.47847 -2.732933,0.80384 -0.434868,-1.47847 c -0.326151,-1.10885 0.01315,-1.81713 0.875592,-2.0708 z" />
      <path
         id="path993"
         style="font-style:normal;font-variant:normal;font-weight:bold;font-stretch:normal;font-size:11.675px;font-family:Montserrat;-inkscape-font-specification:'Montserrat, Bold';font-variant-ligatures:normal;font-variant-caps:normal;font-variant-numeric:normal;font-variant-east-asian:normal;stroke-width:0.291876"
         d="m 65.327198,245.67868 c -0.366232,-2.54226 -2.4056,-4.17114 -4.820744,-3.82322 -2.415143,0.34792 -3.911822,2.4862 -3.54559,5.02846 0.367897,2.55381 2.417156,4.16947 4.820744,3.82321 2.403588,-0.34625 3.913487,-2.47464 3.54559,-5.02845 z m -1.594688,0.22973 c 0.208087,1.44446 -0.687002,2.68218 -2.223911,2.90359 -1.53691,0.2214 -2.74496,-0.71335 -2.953047,-2.15781 -0.208086,-1.44447 0.687002,-2.68219 2.223912,-2.90359 1.536909,-0.22141 2.74496,0.71334 2.953046,2.15781 z" />
      <path
         id="path995"
         style="font-style:normal;font-variant:normal;font-weight:bold;font-stretch:normal;font-size:11.675px;font-family:Montserrat;-inkscape-font-specification:'Montserrat, Bold';font-variant-ligatures:normal;font-variant-caps:normal;font-variant-numeric:normal;font-variant-east-asian:normal;stroke-width:0.291876"
         d="m 64.56532,239.83687 -0.08103,-5.98873 -1.540958,0.0208 0.05544,4.09755 -6.630793,0.0897 0.02559,1.89117 z" />
      <path
         id="path997"
         style="font-style:normal;font-variant:normal;font-weight:bold;font-stretch:normal;font-size:11.675px;font-family:Montserrat;-inkscape-font-specification:'Montserrat, Bold';font-variant-ligatures:normal;font-variant-caps:normal;font-variant-numeric:normal;font-variant-east-asian:normal;stroke-width:0.291876"
         d="m 64.573135,232.78845 0.561994,-5.96285 -1.5343,-0.1446 -0.384522,4.07984 -6.602142,-0.62224 -0.177472,1.883 z" />
      <path
         id="path999"
         style="font-style:normal;font-variant:normal;font-weight:bold;font-stretch:normal;font-size:11.675px;font-family:Montserrat;-inkscape-font-specification:'Montserrat, Bold';font-variant-ligatures:normal;font-variant-caps:normal;font-variant-numeric:normal;font-variant-east-asian:normal;stroke-width:0.291876"
         d="m 62.791961,221.66765 q -1.009679,-0.26242 -1.536433,-1.15915 -0.526754,-0.89673 -0.26433,-1.90641 0.260989,-1.00416 1.157718,-1.53092 0.896728,-0.52675 1.906408,-0.26433 1.004162,0.26099 1.530916,1.15772 0.526754,0.89673 0.265764,1.90089 -0.262424,1.00968 -1.159153,1.53644 -0.896728,0.52675 -1.90089,0.26576 z" />
      <path
         id="path1001"
         style="font-style:normal;font-variant:normal;font-weight:bold;font-stretch:normal;font-size:11.675px;font-family:Montserrat;-inkscape-font-specification:'Montserrat, Bold';font-variant-ligatures:normal;font-variant-caps:normal;font-variant-numeric:normal;font-variant-east-asian:normal;stroke-width:0.291876"
         d="m 70.461733,209.60786 c 0.971567,-2.12328 0.38114,-3.63885 -0.860974,-4.20721 -2.728404,-1.24847 -3.760686,3.50474 -5.130196,2.87808 -0.46712,-0.21375 -0.669569,-0.78143 -0.203217,-1.8006 0.301185,-0.65822 0.817754,-1.28207 1.526319,-1.7924 l -1.062921,-1.12833 c -0.75103,0.49089 -1.411178,1.34435 -1.838667,2.27859 -0.966709,2.11266 -0.382041,3.61275 0.881305,4.19084 2.760254,1.26303 3.781919,-3.49503 5.172663,-2.85865 0.456503,0.20888 0.606771,0.77837 0.140419,1.79754 -0.408058,0.89178 -1.154038,1.68028 -1.897153,2.09776 l 1.028015,1.17655 c 0.810771,-0.42503 1.705188,-1.45376 2.244407,-2.63217 z" />
      <path
         id="path1003"
         style="font-style:normal;font-variant:normal;font-weight:bold;font-stretch:normal;font-size:11.675px;font-family:Montserrat;-inkscape-font-specification:'Montserrat, Bold';font-variant-ligatures:normal;font-variant-caps:normal;font-variant-numeric:normal;font-variant-east-asian:normal;stroke-width:0.291876"
         d="m 74.574679,201.98838 c 0.748206,-1.21201 0.930506,-2.48523 0.530581,-3.63767 l -1.591526,0.44443 c 0.258153,0.80423 0.174481,1.56208 -0.254818,2.2575 -0.803402,1.30141 -2.287729,1.6611 -3.59908,0.85156 -1.311351,-0.80953 -1.654969,-2.29766 -0.851567,-3.59908 0.429299,-0.69541 1.069302,-1.10982 1.894007,-1.24557 l -0.315894,-1.62194 c -1.199526,0.16505 -2.25606,0.89859 -2.998134,2.10066 -1.336959,2.16571 -0.830373,4.70116 1.265802,5.99519 2.096175,1.29403 4.589802,0.6107 5.920629,-1.54508 z" />
      <path
         id="path1005"
         style="font-style:normal;font-variant:normal;font-weight:bold;font-stretch:normal;font-size:11.675px;font-family:Montserrat;-inkscape-font-specification:'Montserrat, Bold';font-variant-ligatures:normal;font-variant-caps:normal;font-variant-numeric:normal;font-variant-east-asian:normal;stroke-width:0.291876"
         d="m 81.583309,192.4247 -3.193987,-0.24232 c 0.319507,-1.11085 0.01476,-2.15879 -0.934615,-2.93432 -1.419542,-1.15961 -3.160753,-0.81819 -4.541946,0.8726 l -2.237977,2.73963 6.329166,5.17024 1.196542,-1.46475 -1.763124,-1.44028 1.041434,-1.27487 0.05909,-0.0723 2.760243,0.21966 z m -5.339916,-1.69381 c 0.687166,0.56134 0.73378,1.35318 0.0026,2.24831 l -0.97496,1.1935 -2.206167,-1.8022 0.97496,-1.1935 c 0.73122,-0.89513 1.507398,-1.01484 2.203607,-0.44611 z" />
      <path
         id="path1007"
         style="font-style:normal;font-variant:normal;font-weight:bold;font-stretch:normal;font-size:11.675px;font-family:Montserrat;-inkscape-font-specification:'Montserrat, Bold';font-variant-ligatures:normal;font-variant-caps:normal;font-variant-numeric:normal;font-variant-east-asian:normal;stroke-width:0.291876"
         d="m 85.511578,188.86407 c 1.889179,-1.74017 2.07868,-4.34332 0.425518,-6.13804 -1.653162,-1.79472 -4.263082,-1.81925 -6.152261,-0.0791 -1.897767,1.74808 -2.070771,4.3519 -0.425519,6.13804 1.645253,1.78613 4.254495,1.82716 6.152262,0.0791 z m -1.091562,-1.18503 c -1.073397,0.98873 -2.60039,0.95082 -3.652402,-0.19127 -1.052012,-1.1421 -0.964615,-2.66706 0.108782,-3.65579 1.073398,-0.98873 2.60039,-0.95083 3.652402,0.19127 1.052013,1.14209 0.964616,2.66705 -0.108782,3.65579 z" />
      <path
         id="path1009"
         style="font-style:normal;font-variant:normal;font-weight:bold;font-stretch:normal;font-size:11.675px;font-family:Montserrat;-inkscape-font-specification:'Montserrat, Bold';font-variant-ligatures:normal;font-variant-caps:normal;font-variant-numeric:normal;font-variant-east-asian:normal;stroke-width:0.291876"
         d="m 89.896243,184.92935 4.893686,-3.45301 -0.888493,-1.25919 -3.348312,2.36258 -3.823212,-5.41835 -1.545374,1.09042 z" />
      <path
         id="path1011"
         style="font-style:normal;font-variant:normal;font-weight:bold;font-stretch:normal;font-size:11.675px;font-family:Montserrat;-inkscape-font-specification:'Montserrat, Bold';font-variant-ligatures:normal;font-variant-caps:normal;font-variant-numeric:normal;font-variant-east-asian:normal;stroke-width:0.291876"
         d="m 95.715025,180.95226 5.239635,-2.90131 -0.74654,-1.34821 -3.58501,1.98511 -3.212372,-5.80139 -1.654622,0.9162 z" />
      <path
         id="path1013"
         style="font-style:normal;font-variant:normal;font-weight:bold;font-stretch:normal;font-size:11.675px;font-family:Montserrat;-inkscape-font-specification:'Montserrat, Bold';font-variant-ligatures:normal;font-variant-caps:normal;font-variant-numeric:normal;font-variant-east-asian:normal;stroke-width:0.291876"
         d="m 103.89247,173.20708 q -0.3528,-0.98175 0.0906,-1.92251 0.44335,-0.94076 1.42511,-1.29356 0.97639,-0.35088 1.91715,0.0925 0.94076,0.44336 1.29356,1.42511 0.35088,0.9764 -0.0925,1.91715 -0.44336,0.94076 -1.41975,1.29164 -0.98175,0.3528 -1.92251,-0.0906 -0.94076,-0.44336 -1.29164,-1.41976 z" />
      <path
         id="path1015"
         style="font-style:normal;font-variant:normal;font-weight:bold;font-stretch:normal;font-size:11.675px;font-family:Montserrat;-inkscape-font-specification:'Montserrat, Bold';font-variant-ligatures:normal;font-variant-caps:normal;font-variant-numeric:normal;font-variant-east-asian:normal;stroke-width:0.291876"
         d="m 118.17682,172.73808 c 2.30125,-0.39553 3.2196,-1.73799 2.98821,-3.08423 -0.50825,-2.95711 -5.0153,-1.12815 -5.27042,-2.61246 -0.087,-0.50627 0.26752,-0.99367 1.37213,-1.18353 0.71339,-0.12261 1.5199,-0.048 2.34099,0.24918 l 0.33206,-1.51415 c -0.82899,-0.34321 -1.90609,-0.40686 -2.91864,-0.23282 -2.28975,0.39355 -3.19857,1.72253 -2.96323,3.09177 0.51419,2.99164 5.01926,1.15117 5.27833,2.65849 0.085,0.49477 -0.30042,0.9401 -1.40502,1.12995 -0.96653,0.16613 -2.03841,-0.005 -2.80232,-0.38312 l -0.39157,1.51254 c 0.80832,0.42969 2.16228,0.5879 3.43948,0.36838 z" />
      <path
         id="path1017"
         style="font-style:normal;font-variant:normal;font-weight:bold;font-stretch:normal;font-size:11.675px;font-family:Montserrat;-inkscape-font-specification:'Montserrat, Bold';font-variant-ligatures:normal;font-variant-caps:normal;font-variant-numeric:normal;font-variant-east-asian:normal;stroke-width:0.291876"
         d="m 126.7883,171.83356 c 1.42278,-0.067 2.57647,-0.63565 3.30167,-1.61654 l -1.2656,-1.06242 c -0.5179,0.66724 -1.19058,1.02619 -2.00693,1.06465 -1.52773,0.072 -2.66284,-0.94985 -2.73536,-2.48924 -0.0725,-1.53939 0.9615,-2.6634 2.48923,-2.73537 0.81635,-0.0385 1.51979,0.25567 2.09758,0.8596 l 1.16011,-1.1767 c -0.81365,-0.8967 -2.01569,-1.35435 -3.4268,-1.28787 -2.54233,0.11977 -4.34863,1.96975 -4.2327,4.43044 0.11592,2.4607 2.08814,4.13267 4.6188,4.01345 z" />
      <path
         id="path1019"
         style="font-style:normal;font-variant:normal;font-weight:bold;font-stretch:normal;font-size:11.675px;font-family:Montserrat;-inkscape-font-specification:'Montserrat, Bold';font-variant-ligatures:normal;font-variant-caps:normal;font-variant-numeric:normal;font-variant-east-asian:normal;stroke-width:0.291876"
         d="m 138.6402,172.20405 -1.6075,-2.7706 c 1.0967,-0.36513 1.7883,-1.20936 1.89054,-2.43096 0.15288,-1.82659 -1.11388,-3.06905 -3.2895,-3.25114 l -3.5252,-0.29504 -0.68162,8.14403 1.88476,0.15774 0.18988,-2.26869 1.64044,0.1373 0.0931,0.008 1.38076,2.40014 z m -1.62499,-5.36126 c -0.074,0.88421 -0.70051,1.3707 -1.85231,1.2743 l -1.53573,-0.12853 0.23759,-2.83877 1.53574,0.12853 c 1.15179,0.0964 1.68969,0.66863 1.61471,1.56447 z" />
      <path
         id="path1021"
         style="font-style:normal;font-variant:normal;font-weight:bold;font-stretch:normal;font-size:11.675px;font-family:Montserrat;-inkscape-font-specification:'Montserrat, Bold';font-variant-ligatures:normal;font-variant-caps:normal;font-variant-numeric:normal;font-variant-east-asian:normal;stroke-width:0.291876"
         d="m 143.79806,173.43029 c 2.50322,0.57538 4.75803,-0.7392 5.30464,-3.11726 0.54661,-2.37806 -0.9079,-4.54524 -3.41112,-5.12063 -2.5146,-0.57799 -4.76065,0.75058 -5.30465,3.11726 -0.54399,2.36669 0.89652,4.54263 3.41113,5.12063 z m 0.36092,-1.57021 c -1.42229,-0.32692 -2.25385,-1.60819 -1.90601,-3.1215 0.34785,-1.51331 1.6554,-2.30289 3.07769,-1.97597 1.42229,0.32692 2.25385,1.60819 1.906,3.1215 -0.34784,1.51331 -1.6554,2.30289 -3.07768,1.97597 z" />
      <path
         id="path1023"
         style="font-style:normal;font-variant:normal;font-weight:bold;font-stretch:normal;font-size:11.675px;font-family:Montserrat;-inkscape-font-specification:'Montserrat, Bold';font-variant-ligatures:normal;font-variant-caps:normal;font-variant-numeric:normal;font-variant-east-asian:normal;stroke-width:0.291876"
         d="m 149.52136,174.82732 5.61087,2.09513 0.53909,-1.44374 -3.83901,-1.4335 2.31975,-6.21243 -1.77186,-0.66162 z" />
      <path
         id="path1025"
         style="font-style:normal;font-variant:normal;font-weight:bold;font-stretch:normal;font-size:11.675px;font-family:Montserrat;-inkscape-font-specification:'Montserrat, Bold';font-variant-ligatures:normal;font-variant-caps:normal;font-variant-numeric:normal;font-variant-east-asian:normal;stroke-width:0.291876"
         d="m 156.08606,177.39239 5.34847,2.69542 0.69356,-1.37621 -3.65948,-1.84424 2.98441,-5.92189 -1.68899,-0.85119 z" />
      <path
         id="path1027"
         style="font-style:normal;font-variant:normal;font-weight:bold;font-stretch:normal;font-size:11.675px;font-family:Montserrat;-inkscape-font-specification:'Montserrat, Bold';font-variant-ligatures:normal;font-variant-caps:normal;font-variant-numeric:normal;font-variant-east-asian:normal;stroke-width:0.291876"
         d="m 167.08955,179.78563 q 0.61186,-0.84496 1.63879,-1.00928 1.02693,-0.16432 1.87189,0.44753 0.84034,0.60851 1.00466,1.63544 0.16432,1.02694 -0.44753,1.8719 -0.60851,0.84034 -1.63544,1.00466 -1.02694,0.16432 -1.86728,-0.44419 -0.84496,-0.61185 -1.00928,-1.63879 -0.16432,-1.02693 0.44419,-1.86727 z" />
      <path
         id="path1029"
         style="font-style:normal;font-variant:normal;font-weight:bold;font-stretch:normal;font-size:11.675px;font-family:Montserrat;-inkscape-font-specification:'Montserrat, Bold';font-variant-ligatures:normal;font-variant-caps:normal;font-variant-numeric:normal;font-variant-east-asian:normal;stroke-width:0.291876"
         d="m 175.53954,191.30974 c 1.6277,1.67416 3.25421,1.67228 4.2336,0.72007 2.15129,-2.09159 -1.90608,-4.77418 -0.82624,-5.82405 0.36831,-0.35809 0.97079,-0.34136 1.75208,0.46224 0.50459,0.51899 0.8992,1.22633 1.11848,2.07155 l 1.43653,-0.58249 c -0.1858,-0.87778 -0.74247,-1.80206 -1.45866,-2.5387 -1.61956,-1.66579 -3.22957,-1.66367 -4.2257,-0.69519 -2.17641,2.11601 1.88933,4.79046 0.79276,5.85661 -0.35995,0.34995 -0.94521,0.28392 -1.72651,-0.51968 -0.68363,-0.70315 -1.1487,-1.68393 -1.26892,-2.52776 l -1.46886,0.5325 c 0.10279,0.90964 0.73806,2.11574 1.64144,3.0449 z" />
      <path
         id="path1031"
         style="font-style:normal;font-variant:normal;font-weight:bold;font-stretch:normal;font-size:11.675px;font-family:Montserrat;-inkscape-font-specification:'Montserrat, Bold';font-variant-ligatures:normal;font-variant-caps:normal;font-variant-numeric:normal;font-variant-east-asian:normal;stroke-width:0.291876"
         d="m 181.15809,197.89825 c 0.86012,1.13533 1.98165,1.76502 3.20074,1.80815 l 0.16016,-1.64464 c -0.84319,-0.0496 -1.51972,-0.40126 -2.01323,-1.05268 -0.92357,-1.21908 -0.72309,-2.73315 0.50529,-3.66377 1.22839,-0.93062 2.7402,-0.71379 3.66377,0.50529 0.49352,0.65142 0.64891,1.39787 0.47775,2.21596 l 1.62659,0.291 c 0.27916,-1.1782 -0.0234,-2.42831 -0.87652,-3.55433 -1.53694,-2.0287 -4.08426,-2.47168 -6.04782,-0.98409 -1.96355,1.48758 -2.22662,4.05972 -0.69673,6.07911 z" />
      <path
         id="path1033"
         style="font-style:normal;font-variant:normal;font-weight:bold;font-stretch:normal;font-size:11.675px;font-family:Montserrat;-inkscape-font-specification:'Montserrat, Bold';font-variant-ligatures:normal;font-variant-caps:normal;font-variant-numeric:normal;font-variant-east-asian:normal;stroke-width:0.291876"
         d="m 187.54618,207.88702 1.37967,-2.89081 c 0.92043,0.69919 2.00769,0.79354 3.07379,0.1884 1.59408,-0.90483 1.90465,-2.65181 0.82692,-4.55049 l -1.74627,-3.07646 -7.10734,4.03429 0.93365,1.64484 1.9799,-1.12384 0.81262,1.43162 0.0461,0.0812 -1.20186,2.49454 z m 3.50829,-4.36756 c -0.77166,0.43801 -1.52687,0.19545 -2.09744,-0.80973 l -0.76075,-1.34024 2.47742,-1.40624 0.76075,1.34024 c 0.57056,1.00519 0.40183,1.7722 -0.37998,2.21597 z" />
      <path
         id="path1035"
         style="font-style:normal;font-variant:normal;font-weight:bold;font-stretch:normal;font-size:11.675px;font-family:Montserrat;-inkscape-font-specification:'Montserrat, Bold';font-variant-ligatures:normal;font-variant-caps:normal;font-variant-numeric:normal;font-variant-east-asian:normal;stroke-width:0.291876"
         d="m 189.44233,212.83831 c 0.93685,2.39155 3.29418,3.51193 5.56615,2.62193 2.27197,-0.89001 3.24107,-3.31347 2.30422,-5.70502 -0.94111,-2.40242 -3.30506,-3.50767 -5.56616,-2.62192 -2.2611,0.88575 -3.24532,3.30259 -2.30421,5.70501 z m 1.50015,-0.58766 c -0.5323,-1.35884 0.0566,-2.76819 1.50244,-3.33456 1.4458,-0.56637 2.83532,0.068 3.36762,1.42679 0.5323,1.35884 -0.0566,2.7682 -1.50244,3.33456 -1.4458,0.56637 -2.83532,-0.068 -3.36762,-1.42679 z" />
      <path
         id="path1037"
         style="font-style:normal;font-variant:normal;font-weight:bold;font-stretch:normal;font-size:11.675px;font-family:Montserrat;-inkscape-font-specification:'Montserrat, Bold';font-variant-ligatures:normal;font-variant-caps:normal;font-variant-numeric:normal;font-variant-east-asian:normal;stroke-width:0.291876"
         d="m 191.51685,218.35219 1.43474,5.81489 1.49623,-0.36918 -0.98167,-3.97861 6.43832,-1.58857 -0.45308,-1.83628 z" />
      <path
         id="path1039"
         style="font-style:normal;font-variant:normal;font-weight:bold;font-stretch:normal;font-size:11.675px;font-family:Montserrat;-inkscape-font-specification:'Montserrat, Bold';font-variant-ligatures:normal;font-variant-caps:normal;font-variant-numeric:normal;font-variant-east-asian:normal;stroke-width:0.291876"
         d="m 193.10138,225.21976 0.79214,5.93666 1.52757,-0.20383 -0.54199,-4.06192 6.57314,-0.87707 -0.25015,-1.87473 z" />
      <path
         id="path1041"
         style="font-style:normal;font-variant:normal;font-weight:bold;font-stretch:normal;font-size:11.675px;font-family:Montserrat;-inkscape-font-specification:'Montserrat, Bold';font-variant-ligatures:normal;font-variant-caps:normal;font-variant-numeric:normal;font-variant-east-asian:normal;stroke-width:0.291876"
         d="m 197.33631,235.64959 q 1.04288,0.0267 1.75918,0.78073 0.7163,0.75399 0.68956,1.79688 -0.0266,1.03718 -0.78058,1.75348 -0.75399,0.7163 -1.79688,0.68956 -1.03718,-0.0266 -1.75348,-0.78058 -0.7163,-0.75399 -0.68971,-1.79118 0.0267,-1.04288 0.78073,-1.75918 0.75399,-0.7163 1.79118,-0.68971 z" />
      <path
         id="path1043"
         style="font-style:normal;font-variant:normal;font-weight:bold;font-stretch:normal;font-size:11.675px;font-family:Montserrat;-inkscape-font-specification:'Montserrat, Bold';font-variant-ligatures:normal;font-variant-caps:normal;font-variant-numeric:normal;font-variant-east-asian:normal;stroke-width:0.291876"
         d="m 192.61431,249.13632 c -0.46076,2.28909 0.46032,3.62968 1.79943,3.89922 2.94148,0.59208 2.86049,-4.27125 4.33695,-3.97406 0.5036,0.10136 0.83039,0.60778 0.60923,1.70654 -0.14284,0.70962 -0.50321,1.435 -1.07644,2.09371 l 1.2926,0.85564 c 0.61901,-0.6495 1.06671,-1.63121 1.26944,-2.63841 0.45846,-2.27764 -0.45348,-3.60448 -1.81548,-3.87863 -2.97582,-0.59899 -2.88338,4.26665 -4.38273,3.96485 -0.49215,-0.0991 -0.76856,-0.61916 -0.54739,-1.71792 0.19352,-0.96142 0.73961,-1.8995 1.36769,-2.47572 l -1.26963,-0.91056 c -0.69222,0.59903 -1.32795,1.8049 -1.58367,3.07534 z" />
      <path
         id="path1045"
         style="font-style:normal;font-variant:normal;font-weight:bold;font-stretch:normal;font-size:11.675px;font-family:Montserrat;-inkscape-font-specification:'Montserrat, Bold';font-variant-ligatures:normal;font-variant-caps:normal;font-variant-numeric:normal;font-variant-east-asian:normal;stroke-width:0.291876"
         d="m 190.34948,257.49341 c -0.45226,1.35064 -0.33956,2.63191 0.31251,3.66286 l 1.44833,-0.79549 c -0.43466,-0.72422 -0.52592,-1.48119 -0.26643,-2.25615 0.48563,-1.45028 1.8489,-2.13882 3.31025,-1.64948 1.46135,0.48933 2.13511,1.85997 1.64948,3.31025 -0.2595,0.77496 -0.7882,1.32434 -1.56025,1.64449 l 0.67726,1.50724 c 1.13033,-0.43411 1.99186,-1.38915 2.44042,-2.72872 0.80815,-2.41344 -0.263,-4.76668 -2.59895,-5.54888 -2.33594,-0.78219 -4.60818,0.45151 -5.41262,2.85388 z" />
      <path
         id="path1047"
         style="font-style:normal;font-variant:normal;font-weight:bold;font-stretch:normal;font-size:11.675px;font-family:Montserrat;-inkscape-font-specification:'Montserrat, Bold';font-variant-ligatures:normal;font-variant-caps:normal;font-variant-numeric:normal;font-variant-east-asian:normal;stroke-width:0.291876"
         d="m 185.6965,268.39883 3.16573,-0.48833 c -0.0593,1.15437 0.47519,2.10589 1.57571,2.64592 1.64553,0.80747 3.26395,0.0801 4.22572,-1.8799 l 1.55837,-3.17578 -7.33678,-3.6002 -0.83319,1.69794 2.04382,1.00291 -0.72518,1.47784 -0.0411,0.0838 -2.73814,0.41204 z m 5.58492,0.43869 c -0.79657,-0.39088 -1.02154,-1.15152 -0.51237,-2.18915 l 0.67889,-1.38351 2.55739,1.25493 -0.67889,1.3835 c -0.50917,1.03763 -1.23798,1.33025 -2.04502,0.93423 z" />
      <path
         id="path1049"
         style="font-style:normal;font-variant:normal;font-weight:bold;font-stretch:normal;font-size:11.675px;font-family:Montserrat;-inkscape-font-specification:'Montserrat, Bold';font-variant-ligatures:normal;font-variant-caps:normal;font-variant-numeric:normal;font-variant-east-asian:normal;stroke-width:0.291876"
         d="m 182.67374,272.75471 c -1.44732,2.1219 -1.04396,4.70058 0.97185,6.07553 2.01581,1.37495 4.56382,0.80935 6.01114,-1.31255 1.45389,-2.13155 1.03431,-4.70716 -0.97186,-6.07553 -2.00616,-1.36837 -4.55724,-0.819 -6.01113,1.31255 z m 1.33101,0.90786 c 0.82234,-1.20563 2.31843,-1.5136 3.60122,-0.63863 1.28278,0.87497 1.54208,2.38026 0.71974,3.58589 -0.82233,1.20563 -2.31843,1.5136 -3.60121,0.63863 -1.28279,-0.87497 -1.54209,-2.38026 -0.71975,-3.58589 z" />
      <path
         id="path1051"
         style="font-style:normal;font-variant:normal;font-weight:bold;font-stretch:normal;font-size:11.675px;font-family:Montserrat;-inkscape-font-specification:'Montserrat, Bold';font-variant-ligatures:normal;font-variant-caps:normal;font-variant-numeric:normal;font-variant-east-asian:normal;stroke-width:0.291876"
         d="m 179.29025,277.57742 -3.98766,4.46878 1.14987,1.02607 2.72839,-3.05759 4.94789,4.41518 1.25926,-1.4112 z" />
      <path
         id="path1053"
         style="font-style:normal;font-variant:normal;font-weight:bold;font-stretch:normal;font-size:11.675px;font-family:Montserrat;-inkscape-font-specification:'Montserrat, Bold';font-variant-ligatures:normal;font-variant-caps:normal;font-variant-numeric:normal;font-variant-east-asian:normal;stroke-width:0.291876"
         d="m 174.51984,282.76568 -4.44683,4.01212 1.03236,1.14422 3.04256,-2.74514 4.44228,4.92359 1.40426,-1.26699 z" />
      <path
         id="path1055"
         style="font-style:normal;font-variant:normal;font-weight:bold;font-stretch:normal;font-size:11.675px;font-family:Montserrat;-inkscape-font-specification:'Montserrat, Bold';font-variant-ligatures:normal;font-variant-caps:normal;font-variant-numeric:normal;font-variant-east-asian:normal;stroke-width:0.291876"
         d="m 168.31416,292.16131 q 0.56714,0.87559 0.34971,1.89261 -0.21744,1.01701 -1.09304,1.58415 -0.87081,0.56404 -1.88783,0.3466 -1.01701,-0.21744 -1.58415,-1.09304 -0.56404,-0.87081 -0.3466,-1.88782 0.21744,-1.01702 1.08825,-1.58106 0.8756,-0.56713 1.89261,-0.3497 1.01701,0.21744 1.58105,1.08826 z" />
    </g>
  </g>
</svg>
