<?xml version="1.0" encoding="UTF-8" standalone="no"?>
<svg
   version="1.1"
   width="256"
   height="256"
   viewBox="0 0 256 256"
   xml:space="preserve"
   id="svg8"
   sodipodi:docname="light_to_dark_theme_switch.svg"
   inkscape:version="1.1 (c68e22c387, 2021-05-23)"
   xmlns:inkscape="http://www.inkscape.org/namespaces/inkscape"
   xmlns:sodipodi="http://sodipodi.sourceforge.net/DTD/sodipodi-0.dtd"
   xmlns="http://www.w3.org/2000/svg"
   xmlns:svg="http://www.w3.org/2000/svg"><sodipodi:namedview
   id="namedview10"
   pagecolor="#505050"
   bordercolor="#eeeeee"
   borderopacity="1"
   inkscape:pageshadow="0"
   inkscape:pageopacity="0"
   inkscape:pagecheckerboard="0"
   showgrid="false"
   inkscape:zoom="3.2460938"
   inkscape:cx="115.06137"
   inkscape:cy="128"
   inkscape:window-width="1920"
   inkscape:window-height="1020"
   inkscape:window-x="-9"
   inkscape:window-y="25"
   inkscape:window-maximized="1"
   inkscape:current-layer="svg8" />

<defs
   id="defs2">
</defs>
<g
   style="opacity:1;fill:#c6c6c6;fill-rule:nonzero;stroke:none;stroke-width:0;stroke-linecap:butt;stroke-linejoin:miter;stroke-miterlimit:10;stroke-dasharray:none;fill-opacity:1"
   transform="matrix(2.81,0,0,2.81,1.4065934,1.4065934)"
   id="g6">
	<path
   d="M 87.823,60.7 C 87.36,60.277 86.681,60.194 86.128,60.486 70.294,68.884 50.862,63.298 41.896,47.768 32.93,32.238 37.806,12.619 52.997,3.103 53.528,2.771 53.793,2.14 53.658,1.529 53.524,0.917 53.02,0.455 52.399,0.376 42.556,-0.889 32.809,1.068 24.206,6.036 13.8,12.041 6.356,21.743 3.246,33.35 0.136,44.957 1.732,57.08 7.741,67.487 13.749,77.894 23.45,85.338 35.057,88.448 38.933,89.486 42.866,90 46.774,90 c 7.795,0 15.489,-2.044 22.42,-6.046 8.601,-4.966 15.171,-12.43 18.997,-21.586 0.242,-0.578 0.094,-1.245 -0.368,-1.668 z"
   style="opacity:1;fill:#c6c6c6;fill-rule:nonzero;stroke:none;stroke-width:1;stroke-linecap:butt;stroke-linejoin:miter;stroke-miterlimit:10;stroke-dasharray:none;fill-opacity:1"
   stroke-linecap="round"
   id="path4" />
</g>
</svg>
